%FSLAX25Y25*%
%MOIN*%
G70*
G01*
G75*
G04 Layer_Color=32896*
%ADD10C,0.01000*%
%ADD11C,0.01200*%
%ADD12O,0.01181X0.06890*%
%ADD13O,0.06890X0.01181*%
%ADD14R,0.09449X0.07874*%
%ADD15R,0.03543X0.03740*%
%ADD16R,0.06000X0.18000*%
%ADD17R,0.18000X0.04000*%
%ADD18R,0.10000X0.08248*%
%ADD19R,0.06000X0.08000*%
%ADD20R,0.08000X0.06000*%
%ADD21R,0.06000X0.08500*%
%ADD22R,0.08500X0.06000*%
%ADD23R,0.18000X0.06000*%
%ADD24R,0.10000X0.08500*%
%ADD25R,0.07500X0.12000*%
%ADD26R,0.05906X0.05906*%
%ADD27R,0.05906X0.05906*%
%ADD28C,0.02400*%
%ADD29C,0.04500*%
%ADD30C,0.02000*%
%ADD31R,0.03740X0.03543*%
%ADD32R,0.05118X0.03543*%
%ADD33R,0.03543X0.05118*%
%ADD34R,0.04654X0.02962*%
%ADD35R,0.04962X0.04654*%
%ADD36R,0.18724X0.06000*%
%ADD37R,0.06000X0.18500*%
%ADD38C,0.02362*%
%ADD39C,0.00787*%
%ADD40O,0.01781X0.07490*%
%ADD41O,0.07490X0.01781*%
%ADD42R,0.10049X0.08474*%
%ADD43R,0.04143X0.04340*%
%ADD44R,0.06506X0.06506*%
%ADD45R,0.06506X0.06506*%
%ADD46C,0.03000*%
%ADD47C,0.05100*%
%ADD48R,0.04340X0.04143*%
%ADD49R,0.05718X0.04143*%
%ADD50R,0.04143X0.05718*%
D10*
X48276Y59498D02*
Y53500D01*
X44278D01*
X42278D02*
X40279D01*
X41279D01*
Y59498D01*
X42278Y58498D01*
X45278Y67998D02*
X46277Y68998D01*
X48277D01*
X49277Y67998D01*
Y64000D01*
X48277Y63000D01*
X46277D01*
X45278Y64000D01*
X43278Y63000D02*
X41279D01*
X42279D01*
Y68998D01*
X43278Y67998D01*
X38280Y63000D02*
X36281D01*
X37280D01*
Y68998D01*
X38280Y67998D01*
X44778Y76498D02*
X45777Y77498D01*
X47777D01*
X48777Y76498D01*
Y72500D01*
X47777Y71500D01*
X45777D01*
X44778Y72500D01*
X42778Y71500D02*
X40779D01*
X41779D01*
Y77498D01*
X42778Y76498D01*
X33781Y71500D02*
X37780D01*
X33781Y75499D01*
Y76498D01*
X34781Y77498D01*
X36780D01*
X37780Y76498D01*
X44778Y86498D02*
X45777Y87498D01*
X47777D01*
X48777Y86498D01*
Y82500D01*
X47777Y81500D01*
X45777D01*
X44778Y82500D01*
X42778Y81500D02*
X40779D01*
X41779D01*
Y87498D01*
X42778Y86498D01*
X37780D02*
X36780Y87498D01*
X34781D01*
X33781Y86498D01*
Y82500D01*
X34781Y81500D01*
X36780D01*
X37780Y82500D01*
Y86498D01*
X126278Y54498D02*
X127278Y55498D01*
X129277D01*
X130277Y54498D01*
Y50500D01*
X129277Y49500D01*
X127278D01*
X126278Y50500D01*
X124278D02*
X123279Y49500D01*
X121279D01*
X120280Y50500D01*
Y54498D01*
X121279Y55498D01*
X123279D01*
X124278Y54498D01*
Y53499D01*
X123279Y52499D01*
X120280D01*
X58778Y100998D02*
X59777Y101998D01*
X61777D01*
X62776Y100998D01*
Y97000D01*
X61777Y96000D01*
X59777D01*
X58778Y97000D01*
X56778Y100998D02*
X55779Y101998D01*
X53779D01*
X52780Y100998D01*
Y99999D01*
X53779Y98999D01*
X52780Y97999D01*
Y97000D01*
X53779Y96000D01*
X55779D01*
X56778Y97000D01*
Y97999D01*
X55779Y98999D01*
X56778Y99999D01*
Y100998D01*
X55779Y98999D02*
X53779D01*
X55778Y125498D02*
X56778Y126498D01*
X58777D01*
X59777Y125498D01*
Y121500D01*
X58777Y120500D01*
X56778D01*
X55778Y121500D01*
X53778Y126498D02*
X49780D01*
Y125498D01*
X53778Y121500D01*
Y120500D01*
X124778Y122498D02*
X125777Y123498D01*
X127777D01*
X128777Y122498D01*
Y118500D01*
X127777Y117500D01*
X125777D01*
X124778Y118500D01*
X118780Y123498D02*
X120779Y122498D01*
X122778Y120499D01*
Y118500D01*
X121779Y117500D01*
X119779D01*
X118780Y118500D01*
Y119499D01*
X119779Y120499D01*
X122778D01*
X79778Y59998D02*
X80778Y60998D01*
X82777D01*
X83776Y59998D01*
Y56000D01*
X82777Y55000D01*
X80778D01*
X79778Y56000D01*
X73780Y60998D02*
X77778D01*
Y57999D01*
X75779Y58999D01*
X74779D01*
X73780Y57999D01*
Y56000D01*
X74779Y55000D01*
X76779D01*
X77778Y56000D01*
X119778Y99998D02*
X120777Y100998D01*
X122777D01*
X123776Y99998D01*
Y96000D01*
X122777Y95000D01*
X120777D01*
X119778Y96000D01*
X114779Y95000D02*
Y100998D01*
X117778Y97999D01*
X113780D01*
X100778Y59998D02*
X101778Y60998D01*
X103777D01*
X104777Y59998D01*
Y56000D01*
X103777Y55000D01*
X101778D01*
X100778Y56000D01*
X98778Y59998D02*
X97779Y60998D01*
X95779D01*
X94780Y59998D01*
Y58999D01*
X95779Y57999D01*
X96779D01*
X95779D01*
X94780Y56999D01*
Y56000D01*
X95779Y55000D01*
X97779D01*
X98778Y56000D01*
D39*
X54883Y114122D02*
X55670D01*
X54883Y116878D02*
X55670D01*
X57383Y89622D02*
X58170D01*
X57383Y92378D02*
X58170D01*
X57383Y75622D02*
X58170D01*
X57383Y78378D02*
X58170D01*
X57383Y72878D02*
X58170D01*
X57383Y70122D02*
X58170D01*
X57383Y67378D02*
X58170D01*
X57383Y64622D02*
X58170D01*
X57383Y61878D02*
X58170D01*
X57383Y59122D02*
X58170D01*
X70654Y57606D02*
Y58394D01*
X67898Y57606D02*
Y58394D01*
X111442Y56213D02*
Y57787D01*
X107111Y56213D02*
Y57787D01*
X117154Y53106D02*
Y53894D01*
X114399Y53106D02*
Y53894D01*
X117989Y108665D02*
X119564D01*
X117989Y104335D02*
X119564D01*
X113899Y120106D02*
Y120894D01*
X116654Y120106D02*
Y120894D01*
M02*
