%FSLAX25Y25*%
%MOIN*%
G70*
G01*
G75*
G04 Layer_Physical_Order=2*
G04 Layer_Color=16711680*
%ADD10C,0.01000*%
%ADD11C,0.01200*%
%ADD12O,0.01181X0.06890*%
%ADD13O,0.06890X0.01181*%
%ADD14R,0.09449X0.07874*%
%ADD15R,0.03543X0.03740*%
%ADD16R,0.06000X0.18000*%
%ADD17R,0.18000X0.04000*%
%ADD18R,0.10000X0.08248*%
%ADD19R,0.06000X0.08000*%
%ADD20R,0.08000X0.06000*%
%ADD21R,0.06000X0.08500*%
%ADD22R,0.08500X0.06000*%
%ADD23R,0.18000X0.06000*%
%ADD24R,0.10000X0.08500*%
%ADD25R,0.07500X0.12000*%
%ADD26R,0.05906X0.05906*%
%ADD27R,0.05906X0.05906*%
%ADD28C,0.02400*%
%ADD29C,0.04500*%
%ADD30C,0.02000*%
%ADD31R,0.03740X0.03543*%
%ADD32R,0.05118X0.03543*%
%ADD33R,0.03543X0.05118*%
%ADD34R,0.04654X0.02962*%
%ADD35R,0.04962X0.04654*%
%ADD36R,0.18724X0.06000*%
%ADD37R,0.06000X0.18500*%
G36*
X175277Y500D02*
X277D01*
Y68000D01*
Y98000D01*
Y175500D01*
X175277D01*
Y500D01*
D02*
G37*
%LPC*%
G36*
X167777Y168000D02*
X7777D01*
Y98057D01*
X27777Y98210D01*
Y148000D01*
X144239D01*
X144431Y147538D01*
X132835Y135942D01*
X132393Y135280D01*
X132237Y134500D01*
Y133345D01*
X118510Y119617D01*
X118048Y119809D01*
Y120319D01*
X112505D01*
Y119488D01*
X89725D01*
X88945Y119333D01*
X88283Y118891D01*
X86932Y117539D01*
X62685D01*
X62635Y117572D01*
X61777Y117743D01*
X61584Y117705D01*
X61198Y118022D01*
Y118272D01*
X55458D01*
Y112728D01*
X56288D01*
Y107449D01*
X56288Y107449D01*
X56288D01*
X56444Y106668D01*
X56886Y106007D01*
X58789Y104104D01*
Y93772D01*
X57958D01*
Y88228D01*
X58789D01*
Y79772D01*
X57958D01*
Y74228D01*
Y68728D01*
Y63272D01*
X57595D01*
Y63272D01*
X51855D01*
Y57728D01*
X52509D01*
X52686Y57551D01*
X52686Y57551D01*
D01*
X52841Y56771D01*
X53283Y56109D01*
X54893Y54500D01*
X38932Y38539D01*
X36277D01*
X35496Y38384D01*
X34835Y37942D01*
X28238Y31346D01*
X27777Y31537D01*
Y68000D01*
X7777D01*
Y8000D01*
X167777D01*
Y168000D01*
D02*
G37*
%LPD*%
G36*
X147776Y144463D02*
Y28000D01*
X31314D01*
X31122Y28462D01*
X37121Y34461D01*
X39777D01*
X40557Y34616D01*
X41218Y35058D01*
X58621Y52461D01*
X61777D01*
X62557Y52616D01*
X63218Y53058D01*
X68341Y58181D01*
X72048D01*
Y59012D01*
X87881D01*
X91335Y55558D01*
X91996Y55116D01*
X92777Y54961D01*
X113005D01*
Y53681D01*
X118548D01*
Y59421D01*
X118299D01*
X117981Y59808D01*
X118020Y60000D01*
X117849Y60858D01*
X117363Y61586D01*
X116635Y62072D01*
X115777Y62243D01*
X114918Y62072D01*
X114190Y61586D01*
X113704Y60858D01*
X113533Y60000D01*
X113572Y59808D01*
X113306Y59484D01*
X112836Y59653D01*
Y63906D01*
X111795D01*
X111478Y64292D01*
X111520Y64500D01*
X111349Y65358D01*
X110863Y66086D01*
X110135Y66572D01*
X109276Y66743D01*
X108418Y66572D01*
X107690Y66086D01*
X107204Y65358D01*
X107033Y64500D01*
X107075Y64292D01*
X106758Y63906D01*
X105717D01*
Y59039D01*
X93621D01*
X90167Y62493D01*
X89506Y62935D01*
X88725Y63090D01*
X72048D01*
Y63921D01*
X71799D01*
X71481Y64308D01*
X71520Y64500D01*
X71349Y65358D01*
X70863Y66086D01*
X70135Y66572D01*
X69276Y66743D01*
X69269Y66742D01*
X69169Y66783D01*
X69163Y66776D01*
X69163Y66776D01*
X68306Y67633D01*
Y74500D01*
X68209Y74988D01*
X68190Y75085D01*
X67858Y75581D01*
X66553Y76886D01*
X66553Y76886D01*
X66559Y76893D01*
X66518Y76992D01*
X66520Y77000D01*
X66349Y77858D01*
X65863Y78586D01*
X65135Y79072D01*
X64276Y79243D01*
X64084Y79205D01*
X63698Y79522D01*
Y79772D01*
X62867D01*
Y88228D01*
X63698D01*
Y88478D01*
X64084Y88795D01*
X64276Y88757D01*
X65135Y88928D01*
X65863Y89414D01*
X66349Y90142D01*
X66520Y91000D01*
X66349Y91858D01*
X65863Y92586D01*
X65135Y93072D01*
X64276Y93243D01*
X64084Y93205D01*
X63698Y93522D01*
Y93772D01*
X62867D01*
Y104949D01*
X62867Y104949D01*
X62867Y104949D01*
Y104949D01*
X62867D01*
X62867Y104949D01*
X62712Y105729D01*
X62270Y106391D01*
X60367Y108293D01*
Y112728D01*
X61198D01*
Y112978D01*
X61584Y113295D01*
X61777Y113257D01*
X62635Y113428D01*
X62685Y113461D01*
X87776D01*
X88557Y113616D01*
X89218Y114058D01*
X89218Y114058D01*
X89218Y114058D01*
X90570Y115410D01*
X112505D01*
Y114579D01*
X118048D01*
Y115410D01*
X119225D01*
X120006Y115565D01*
X120667Y116007D01*
X135718Y131058D01*
X136160Y131720D01*
X136316Y132500D01*
X136316Y132500D01*
X136316Y132500D01*
Y132500D01*
Y133655D01*
X147315Y144654D01*
X147776Y144463D01*
D02*
G37*
%LPC*%
G36*
X117414Y110059D02*
X111871D01*
Y109519D01*
X111485Y109202D01*
X111276Y109243D01*
X110418Y109072D01*
X109690Y108586D01*
X109204Y107858D01*
X109033Y107000D01*
X109204Y106142D01*
X109690Y105414D01*
X110418Y104928D01*
X111276Y104757D01*
X111485Y104798D01*
X111871Y104481D01*
Y102941D01*
X117414D01*
Y110059D01*
D02*
G37*
%LPD*%
D10*
X65472Y75805D02*
G03*
X64276Y76300I-1195J-1195D01*
G01*
X64977Y77000D02*
G03*
X65472Y75805I1690J0D01*
G01*
X68081Y65695D02*
G03*
X69276Y65200I1195J1195D01*
G01*
X68577Y64500D02*
G03*
X68081Y65695I-1690J0D01*
G01*
X60828Y70500D02*
Y71500D01*
Y70500D02*
X61328Y71000D01*
X66777Y67000D02*
X69276Y64500D01*
X66777Y67000D02*
Y74500D01*
X64276Y77000D02*
X66777Y74500D01*
D15*
X69276Y54949D02*
D03*
Y61051D02*
D03*
X115777Y50449D02*
D03*
Y56551D02*
D03*
X115277Y123551D02*
D03*
Y117449D02*
D03*
D21*
X152777Y164250D02*
D03*
Y11750D02*
D03*
X142777D02*
D03*
X22776D02*
D03*
Y164250D02*
D03*
X32776D02*
D03*
D22*
X164026Y153000D02*
D03*
Y23000D02*
D03*
X11526D02*
D03*
Y143000D02*
D03*
Y153000D02*
D03*
D26*
X142777D02*
D03*
X132776D02*
D03*
X142777Y163000D02*
D03*
X132776D02*
D03*
X122776D02*
D03*
X52776D02*
D03*
X32776D02*
D03*
X22776Y113000D02*
D03*
Y103000D02*
D03*
X152777Y163000D02*
D03*
X162777D02*
D03*
X152777Y123000D02*
D03*
Y133000D02*
D03*
Y143000D02*
D03*
Y153000D02*
D03*
X162777D02*
D03*
Y143000D02*
D03*
Y133000D02*
D03*
Y123000D02*
D03*
X152777Y83000D02*
D03*
X162777D02*
D03*
X152777Y73000D02*
D03*
Y63000D02*
D03*
X162777Y73000D02*
D03*
Y63000D02*
D03*
X152777Y33000D02*
D03*
Y23000D02*
D03*
Y43000D02*
D03*
X162777D02*
D03*
Y33000D02*
D03*
Y23000D02*
D03*
Y13000D02*
D03*
X152777D02*
D03*
X142777Y23000D02*
D03*
Y13000D02*
D03*
X132776Y23000D02*
D03*
Y13000D02*
D03*
X122776Y23000D02*
D03*
Y13000D02*
D03*
X112777Y23000D02*
D03*
Y13000D02*
D03*
X102777Y23000D02*
D03*
X22776D02*
D03*
X32776D02*
D03*
X22776Y13000D02*
D03*
X32776D02*
D03*
X12776D02*
D03*
Y23000D02*
D03*
Y63000D02*
D03*
Y103000D02*
D03*
Y113000D02*
D03*
X22776Y153000D02*
D03*
Y163000D02*
D03*
X12776Y143000D02*
D03*
Y153000D02*
D03*
Y163000D02*
D03*
D27*
X122776Y153000D02*
D03*
X112777D02*
D03*
X102777D02*
D03*
X92777D02*
D03*
X112777Y163000D02*
D03*
X102777D02*
D03*
X92777D02*
D03*
X82776D02*
D03*
X72777Y153000D02*
D03*
X82776D02*
D03*
X62776D02*
D03*
X52776D02*
D03*
X42777D02*
D03*
X32776D02*
D03*
X72777Y163000D02*
D03*
X62776D02*
D03*
X42777D02*
D03*
X22776Y123000D02*
D03*
X152777Y103000D02*
D03*
Y93000D02*
D03*
Y113000D02*
D03*
X162777D02*
D03*
Y103000D02*
D03*
Y93000D02*
D03*
X152777Y53000D02*
D03*
X162777D02*
D03*
X92777Y13000D02*
D03*
X102777D02*
D03*
X82776D02*
D03*
X72777D02*
D03*
X62776D02*
D03*
X52776D02*
D03*
X42777D02*
D03*
X92777Y23000D02*
D03*
X82776D02*
D03*
X72777D02*
D03*
X62776D02*
D03*
X52776D02*
D03*
X42777D02*
D03*
X12776Y33000D02*
D03*
Y43000D02*
D03*
Y53000D02*
D03*
X22776Y33000D02*
D03*
Y43000D02*
D03*
Y53000D02*
D03*
Y63000D02*
D03*
X12776Y123000D02*
D03*
X22776Y143000D02*
D03*
Y133000D02*
D03*
X12776D02*
D03*
D28*
X16276Y83000D02*
D03*
X48777Y133000D02*
D03*
X134276Y123000D02*
D03*
X38276Y93000D02*
D03*
X61777Y115500D02*
D03*
X64276Y71000D02*
D03*
X69276Y64500D02*
D03*
X64276Y91000D02*
D03*
X111276Y107000D02*
D03*
X109276Y64500D02*
D03*
X64276Y77000D02*
D03*
X115777Y60000D02*
D03*
X87776Y88000D02*
D03*
X93777Y94000D02*
D03*
X99777Y100000D02*
D03*
X105777Y106000D02*
D03*
X81776Y94000D02*
D03*
X69776Y106000D02*
D03*
X75776Y100000D02*
D03*
X105777Y70000D02*
D03*
X99777Y76000D02*
D03*
X93777Y82000D02*
D03*
X81776D02*
D03*
X75776Y76000D02*
D03*
X69776Y70000D02*
D03*
X46277Y38000D02*
D03*
X125277Y43000D02*
D03*
X51026Y53750D02*
D03*
D29*
X162777Y163000D02*
D03*
X52776Y153000D02*
D03*
X42777D02*
D03*
Y163000D02*
D03*
X52776D02*
D03*
X62776D02*
D03*
Y153000D02*
D03*
X72777D02*
D03*
Y163000D02*
D03*
X82776Y153000D02*
D03*
Y163000D02*
D03*
X92777D02*
D03*
Y153000D02*
D03*
X102777D02*
D03*
Y163000D02*
D03*
X112777D02*
D03*
Y153000D02*
D03*
X122776D02*
D03*
Y163000D02*
D03*
X132776D02*
D03*
Y153000D02*
D03*
X142777D02*
D03*
Y163000D02*
D03*
X152777Y133000D02*
D03*
X162777D02*
D03*
Y123000D02*
D03*
X152777D02*
D03*
Y113000D02*
D03*
X162777D02*
D03*
X152777Y103000D02*
D03*
X162777D02*
D03*
Y93000D02*
D03*
X152777D02*
D03*
Y83000D02*
D03*
X162777D02*
D03*
X152777Y73000D02*
D03*
X162777D02*
D03*
Y63000D02*
D03*
X152777D02*
D03*
Y53000D02*
D03*
X162777D02*
D03*
Y43000D02*
D03*
X152777D02*
D03*
Y33000D02*
D03*
X162777D02*
D03*
X132776Y23000D02*
D03*
X122776D02*
D03*
X112777D02*
D03*
X142777D02*
D03*
X132776Y13000D02*
D03*
X122776D02*
D03*
X112777D02*
D03*
X102777D02*
D03*
Y23000D02*
D03*
X92777D02*
D03*
Y13000D02*
D03*
X82776D02*
D03*
Y23000D02*
D03*
X72777D02*
D03*
Y13000D02*
D03*
X62776D02*
D03*
Y23000D02*
D03*
X52776D02*
D03*
Y13000D02*
D03*
X42777D02*
D03*
Y23000D02*
D03*
X12776Y33000D02*
D03*
X22776D02*
D03*
X12776Y43000D02*
D03*
X22776D02*
D03*
Y53000D02*
D03*
X12776D02*
D03*
Y63000D02*
D03*
X22776D02*
D03*
Y103000D02*
D03*
X12776D02*
D03*
Y113000D02*
D03*
X22776D02*
D03*
Y123000D02*
D03*
X12776D02*
D03*
Y133000D02*
D03*
X22776D02*
D03*
Y143000D02*
D03*
X32776Y153000D02*
D03*
X22776D02*
D03*
X12776Y163000D02*
D03*
X152777Y153000D02*
D03*
Y23000D02*
D03*
X162777Y13000D02*
D03*
X22776Y23000D02*
D03*
X12776Y13000D02*
D03*
Y23000D02*
D03*
X22776Y13000D02*
D03*
X152777Y143000D02*
D03*
X162777D02*
D03*
Y153000D02*
D03*
X12776Y143000D02*
D03*
Y153000D02*
D03*
X22776Y163000D02*
D03*
X32776D02*
D03*
X152777D02*
D03*
X162777Y23000D02*
D03*
X152777Y13000D02*
D03*
X142777D02*
D03*
X32776D02*
D03*
Y23000D02*
D03*
D30*
X125477Y43000D02*
G03*
X127739Y37537I7726J0D01*
G01*
X119814Y45463D02*
G03*
X125277Y43200I5463J5463D01*
G01*
X52225Y123551D02*
X115277D01*
X122910Y56134D02*
Y106500D01*
X117225Y50449D02*
X122910Y56134D01*
X115777Y50449D02*
X117225D01*
X61328Y71000D02*
X64276D01*
X60828Y60500D02*
Y66000D01*
Y70500D01*
X54725Y66000D02*
Y71500D01*
Y77000D01*
X69276Y61051D02*
Y64500D01*
X60828Y77000D02*
X64276D01*
X60828Y91000D02*
X64276D01*
X111276Y107000D02*
X114143D01*
X109276Y61134D02*
Y64500D01*
X69276Y61051D02*
X88725D01*
X92777Y57000D01*
X115328D01*
X115777Y56551D02*
Y60000D01*
X69276Y54949D02*
X82828D01*
X84910Y52866D01*
X109276D01*
X111694Y50449D01*
X115777D01*
X61777Y54500D02*
X68328Y61051D01*
X69276D01*
X60828Y77000D02*
Y91000D01*
X54725Y77000D02*
Y91000D01*
X58328Y107449D02*
Y115500D01*
Y107449D02*
X60828Y104949D01*
Y91000D02*
Y104949D01*
X52225Y104551D02*
Y115500D01*
Y104551D02*
X54725Y102051D01*
Y91000D02*
Y102051D01*
X87776Y115500D02*
X89725Y117449D01*
X58328Y115500D02*
X61777D01*
X87776D01*
X134276Y134500D02*
X152777Y153000D01*
X89725Y117449D02*
X115277D01*
X27777Y158000D02*
X32776Y163000D01*
X27777Y148000D02*
Y158000D01*
Y148000D02*
X52225Y123551D01*
Y115500D02*
Y123551D01*
X115277Y117449D02*
X119225D01*
X134276Y132500D01*
Y134500D01*
X115777Y49500D02*
Y50449D01*
Y49500D02*
X129277Y36000D01*
X139777D01*
X147776Y28000D01*
X157776D01*
X162777Y23000D01*
X109276Y61134D02*
Y64500D01*
X57776Y54500D02*
X61777D01*
X54725Y57551D02*
X57776Y54500D01*
X54725Y57551D02*
Y60500D01*
X22776Y23000D02*
X36277Y36500D01*
X39777D01*
X57776Y54500D01*
D31*
X52225Y115500D02*
D03*
X58328D02*
D03*
X54725Y91000D02*
D03*
X60828D02*
D03*
X54725Y77000D02*
D03*
X60828D02*
D03*
Y71500D02*
D03*
X54725D02*
D03*
X60828Y66000D02*
D03*
X54725D02*
D03*
X60828Y60500D02*
D03*
X54725D02*
D03*
D32*
X109276Y52866D02*
D03*
Y61134D02*
D03*
D33*
X122910Y106500D02*
D03*
X114643D02*
D03*
D34*
X33449Y26981D02*
D03*
D35*
X149795Y142327D02*
D03*
D36*
X159138Y143000D02*
D03*
D37*
X32776Y16750D02*
D03*
M02*
