%FSLAX25Y25*%
%MOIN*%
G70*
G01*
G75*
G04 Layer_Color=32768*
%ADD10C,0.01000*%
%ADD11C,0.01200*%
%ADD12O,0.01181X0.06890*%
%ADD13O,0.06890X0.01181*%
%ADD14R,0.09449X0.07874*%
%ADD15R,0.03543X0.03740*%
%ADD16R,0.06000X0.18000*%
%ADD17R,0.18000X0.04000*%
%ADD18R,0.10000X0.08248*%
%ADD19R,0.06000X0.08000*%
%ADD20R,0.08000X0.06000*%
%ADD21R,0.06000X0.08500*%
%ADD22R,0.08500X0.06000*%
%ADD23R,0.18000X0.06000*%
%ADD24R,0.10000X0.08500*%
%ADD25R,0.07500X0.12000*%
%ADD26R,0.05906X0.05906*%
%ADD27R,0.05906X0.05906*%
%ADD28C,0.02400*%
%ADD29C,0.04500*%
%ADD30C,0.02000*%
%ADD31R,0.03740X0.03543*%
%ADD32R,0.05118X0.03543*%
%ADD33R,0.03543X0.05118*%
%ADD34R,0.04654X0.02962*%
%ADD35R,0.04962X0.04654*%
%ADD36R,0.18724X0.06000*%
%ADD37R,0.06000X0.18500*%
%ADD38C,0.02362*%
%ADD39C,0.00787*%
%ADD40O,0.01781X0.07490*%
%ADD41O,0.07490X0.01781*%
%ADD42R,0.10049X0.08474*%
%ADD43R,0.04143X0.04340*%
%ADD44R,0.06506X0.06506*%
%ADD45R,0.06506X0.06506*%
%ADD46C,0.03000*%
%ADD47C,0.05100*%
%ADD48R,0.04340X0.04143*%
%ADD49R,0.05718X0.04143*%
%ADD50R,0.04143X0.05718*%
%ADD51C,0.00394*%
D51*
X55277Y113728D02*
Y117272D01*
X53505Y115500D02*
X57048D01*
X49273Y112744D02*
X61280D01*
X49273Y118256D02*
X61280D01*
X49273Y112744D02*
Y118256D01*
X61280Y112744D02*
Y118256D01*
X57776Y89228D02*
Y92772D01*
X56005Y91000D02*
X59548D01*
X51773Y88244D02*
X63780D01*
X51773Y93756D02*
X63780D01*
X51773Y88244D02*
Y93756D01*
X63780Y88244D02*
Y93756D01*
X57776Y75228D02*
Y78772D01*
X56005Y77000D02*
X59548D01*
X51773Y74244D02*
X63780D01*
X51773Y79756D02*
X63780D01*
X51773Y74244D02*
Y79756D01*
X63780Y74244D02*
Y79756D01*
X57776Y69728D02*
Y73272D01*
X56005Y71500D02*
X59548D01*
X51773Y74256D02*
X63780D01*
X51773Y68744D02*
X63780D01*
Y74256D01*
X51773Y68744D02*
Y74256D01*
X57776Y64228D02*
Y67772D01*
X56005Y66000D02*
X59548D01*
X51773Y68756D02*
X63780D01*
X51773Y63244D02*
X63780D01*
Y68756D01*
X51773Y63244D02*
Y68756D01*
X57776Y58728D02*
Y62272D01*
X56005Y60500D02*
X59548D01*
X51773Y63256D02*
X63780D01*
X51773Y57744D02*
X63780D01*
Y63256D01*
X51773Y57744D02*
Y63256D01*
X67505Y58000D02*
X71048D01*
X69276Y56228D02*
Y59772D01*
X72032Y51996D02*
Y64004D01*
X66521Y51996D02*
Y64004D01*
Y51996D02*
X72032D01*
X66521Y64004D02*
X72032D01*
X107308Y57000D02*
X111245D01*
X109276Y55032D02*
Y58969D01*
X112820Y50209D02*
Y63791D01*
X105733Y50209D02*
Y63791D01*
Y50209D02*
X112820D01*
X105733Y63791D02*
X112820D01*
X114005Y53500D02*
X117548D01*
X115777Y51728D02*
Y55272D01*
X118532Y47496D02*
Y59504D01*
X113021Y47496D02*
Y59504D01*
Y47496D02*
X118532D01*
X113021Y59504D02*
X118532D01*
X118777Y104532D02*
Y108468D01*
X116808Y106500D02*
X120745D01*
X111985Y110043D02*
X125568D01*
X111985Y102957D02*
X125568D01*
Y110043D01*
X111985Y102957D02*
Y110043D01*
X113505Y120500D02*
X117048D01*
X115277Y118728D02*
Y122272D01*
X112521Y114496D02*
Y126504D01*
X118032Y114496D02*
Y126504D01*
X112521D02*
X118032D01*
X112521Y114496D02*
X118032D01*
X87776Y86032D02*
Y89969D01*
X85808Y88000D02*
X89745D01*
X53525Y53748D02*
X122029D01*
X53525Y122252D02*
X122029D01*
Y53748D02*
Y122252D01*
X53525Y53748D02*
Y122252D01*
X19808Y83000D02*
X23745D01*
X21777Y81032D02*
Y84969D01*
X13903Y69811D02*
Y96189D01*
X29651Y69811D02*
Y96189D01*
X13903Y69811D02*
X29651D01*
X13903Y96189D02*
X29651D01*
X9005Y76000D02*
X12548D01*
X10776Y74228D02*
Y77772D01*
X13532Y69996D02*
Y82004D01*
X8021Y69996D02*
Y82004D01*
X13532D01*
X8021Y69996D02*
X13532D01*
X9005Y90000D02*
X12548D01*
X10776Y88228D02*
Y91772D01*
X13532Y83996D02*
Y96004D01*
X8021Y83996D02*
Y96004D01*
X13532D01*
X8021Y83996D02*
X13532D01*
M02*
