%FSLAX25Y25*%
%MOIN*%
G70*
G01*
G75*
%ADD10C,0.01000*%
%ADD11C,0.01200*%
%ADD12O,0.01181X0.06890*%
%ADD13O,0.06890X0.01181*%
%ADD14R,0.09449X0.07874*%
%ADD15R,0.03543X0.03740*%
%ADD16R,0.06000X0.18000*%
%ADD17R,0.18000X0.04000*%
%ADD18R,0.10000X0.08248*%
%ADD19R,0.06000X0.08000*%
%ADD20R,0.08000X0.06000*%
%ADD21R,0.06000X0.08500*%
%ADD22R,0.08500X0.06000*%
%ADD23R,0.18000X0.06000*%
%ADD24R,0.10000X0.08500*%
%ADD25R,0.07500X0.12000*%
%ADD26R,0.05906X0.05906*%
%ADD27R,0.05906X0.05906*%
%ADD28C,0.02400*%
%ADD29C,0.04500*%
%ADD30C,0.02000*%
%ADD31R,0.03740X0.03543*%
%ADD32R,0.05118X0.03543*%
%ADD33R,0.03543X0.05118*%
%ADD34R,0.04654X0.02962*%
%ADD35R,0.04962X0.04654*%
%ADD36R,0.18724X0.06000*%
%ADD37R,0.06000X0.18500*%
D12*
X64154Y117823D02*
D03*
X66123D02*
D03*
X68091D02*
D03*
X70060D02*
D03*
X72028D02*
D03*
X73997D02*
D03*
X75965D02*
D03*
X77934D02*
D03*
X79902D02*
D03*
X81871D02*
D03*
X83839D02*
D03*
X85808D02*
D03*
X87776D02*
D03*
X89745D02*
D03*
X91714D02*
D03*
X93682D02*
D03*
X95651D02*
D03*
X97619D02*
D03*
X99588D02*
D03*
X101556D02*
D03*
X103524D02*
D03*
X105493D02*
D03*
X107462D02*
D03*
X109430D02*
D03*
X111398D02*
D03*
Y58177D02*
D03*
X109430D02*
D03*
X107462D02*
D03*
X105493D02*
D03*
X103524D02*
D03*
X101556D02*
D03*
X99588D02*
D03*
X97619D02*
D03*
X95651D02*
D03*
X93682D02*
D03*
X91714D02*
D03*
X89745D02*
D03*
X87776D02*
D03*
X85808D02*
D03*
X83839D02*
D03*
X81871D02*
D03*
X79902D02*
D03*
X77934D02*
D03*
X75965D02*
D03*
X73997D02*
D03*
X72028D02*
D03*
X70060D02*
D03*
X68091D02*
D03*
X66123D02*
D03*
X64154D02*
D03*
D13*
X117599Y111622D02*
D03*
Y109653D02*
D03*
Y107685D02*
D03*
Y105717D02*
D03*
Y103748D02*
D03*
Y101779D02*
D03*
Y99811D02*
D03*
Y97843D02*
D03*
Y95874D02*
D03*
Y93906D02*
D03*
Y91937D02*
D03*
Y89969D02*
D03*
Y88000D02*
D03*
Y86032D02*
D03*
Y84063D02*
D03*
Y82095D02*
D03*
Y80126D02*
D03*
Y78158D02*
D03*
Y76189D02*
D03*
Y74221D02*
D03*
Y72252D02*
D03*
Y70284D02*
D03*
Y68315D02*
D03*
Y66347D02*
D03*
Y64378D02*
D03*
X57954D02*
D03*
Y66347D02*
D03*
Y68315D02*
D03*
Y70284D02*
D03*
Y72252D02*
D03*
Y74221D02*
D03*
Y76189D02*
D03*
Y78158D02*
D03*
Y80126D02*
D03*
Y82095D02*
D03*
Y84063D02*
D03*
Y86032D02*
D03*
Y88000D02*
D03*
Y89969D02*
D03*
Y91937D02*
D03*
Y93906D02*
D03*
Y95874D02*
D03*
Y97843D02*
D03*
Y99811D02*
D03*
Y101779D02*
D03*
Y103748D02*
D03*
Y105717D02*
D03*
Y107685D02*
D03*
Y109653D02*
D03*
Y111622D02*
D03*
D14*
X21777Y75126D02*
D03*
Y90874D02*
D03*
D15*
X10776Y79051D02*
D03*
Y72949D02*
D03*
Y93051D02*
D03*
Y86949D02*
D03*
D26*
X142777Y153000D02*
D03*
X132776D02*
D03*
X142777Y163000D02*
D03*
X132776D02*
D03*
X122776D02*
D03*
X52776D02*
D03*
X32776D02*
D03*
X22776Y113000D02*
D03*
Y103000D02*
D03*
X152777Y163000D02*
D03*
X162777D02*
D03*
X152777Y123000D02*
D03*
Y133000D02*
D03*
Y143000D02*
D03*
Y153000D02*
D03*
X162777D02*
D03*
Y143000D02*
D03*
Y133000D02*
D03*
Y123000D02*
D03*
X152777Y83000D02*
D03*
X162777D02*
D03*
X152777Y73000D02*
D03*
Y63000D02*
D03*
X162777Y73000D02*
D03*
Y63000D02*
D03*
X152777Y33000D02*
D03*
Y23000D02*
D03*
Y43000D02*
D03*
X162777D02*
D03*
Y33000D02*
D03*
Y23000D02*
D03*
Y13000D02*
D03*
X152777D02*
D03*
X142777Y23000D02*
D03*
Y13000D02*
D03*
X132776Y23000D02*
D03*
Y13000D02*
D03*
X122776Y23000D02*
D03*
Y13000D02*
D03*
X112777Y23000D02*
D03*
Y13000D02*
D03*
X102777Y23000D02*
D03*
X22776D02*
D03*
X32776D02*
D03*
X22776Y13000D02*
D03*
X32776D02*
D03*
X12776D02*
D03*
Y23000D02*
D03*
Y63000D02*
D03*
Y103000D02*
D03*
Y113000D02*
D03*
X22776Y153000D02*
D03*
Y163000D02*
D03*
X12776Y143000D02*
D03*
Y153000D02*
D03*
Y163000D02*
D03*
D27*
X122776Y153000D02*
D03*
X112777D02*
D03*
X102777D02*
D03*
X92777D02*
D03*
X112777Y163000D02*
D03*
X102777D02*
D03*
X92777D02*
D03*
X82776D02*
D03*
X72777Y153000D02*
D03*
X82776D02*
D03*
X62776D02*
D03*
X52776D02*
D03*
X42777D02*
D03*
X32776D02*
D03*
X72777Y163000D02*
D03*
X62776D02*
D03*
X42777D02*
D03*
X22776Y123000D02*
D03*
X152777Y103000D02*
D03*
Y93000D02*
D03*
Y113000D02*
D03*
X162777D02*
D03*
Y103000D02*
D03*
Y93000D02*
D03*
X152777Y53000D02*
D03*
X162777D02*
D03*
X92777Y13000D02*
D03*
X102777D02*
D03*
X82776D02*
D03*
X72777D02*
D03*
X62776D02*
D03*
X52776D02*
D03*
X42777D02*
D03*
X92777Y23000D02*
D03*
X82776D02*
D03*
X72777D02*
D03*
X62776D02*
D03*
X52776D02*
D03*
X42777D02*
D03*
X12776Y33000D02*
D03*
Y43000D02*
D03*
Y53000D02*
D03*
X22776Y33000D02*
D03*
Y43000D02*
D03*
Y53000D02*
D03*
Y63000D02*
D03*
X12776Y123000D02*
D03*
X22776Y143000D02*
D03*
Y133000D02*
D03*
X12776D02*
D03*
M02*
