%FSLAX25Y25*%
%MOIN*%
G70*
G01*
G75*
%ADD10C,0.01000*%
%ADD11C,0.01200*%
%ADD12O,0.01181X0.06890*%
%ADD13O,0.06890X0.01181*%
%ADD14R,0.09449X0.07874*%
%ADD15R,0.03543X0.03740*%
%ADD16R,0.06000X0.18000*%
%ADD17R,0.18000X0.04000*%
%ADD18R,0.10000X0.08248*%
%ADD19R,0.06000X0.08000*%
%ADD20R,0.08000X0.06000*%
%ADD21R,0.06000X0.08500*%
%ADD22R,0.08500X0.06000*%
%ADD23R,0.18000X0.06000*%
%ADD24R,0.10000X0.08500*%
%ADD25R,0.07500X0.12000*%
%ADD26R,0.05906X0.05906*%
%ADD27R,0.05906X0.05906*%
%ADD28C,0.02400*%
%ADD29C,0.04500*%
%ADD30C,0.02000*%
%ADD31R,0.03740X0.03543*%
%ADD32R,0.05118X0.03543*%
%ADD33R,0.03543X0.05118*%
%ADD34R,0.04654X0.02962*%
%ADD35R,0.04962X0.04654*%
%ADD36R,0.18724X0.06000*%
%ADD37R,0.06000X0.18500*%
%ADD38C,0.02362*%
%ADD39C,0.00787*%
D10*
X37775Y141998D02*
X36775Y142998D01*
X34776D01*
X33777Y141998D01*
Y140999D01*
X34776Y139999D01*
X36775D01*
X37775Y138999D01*
Y138000D01*
X36775Y137000D01*
X34776D01*
X33777Y138000D01*
X39775Y142998D02*
X43773D01*
X41774D01*
Y137000D01*
X45773D02*
Y142998D01*
X47772Y140999D01*
X49771Y142998D01*
Y137000D01*
X51771Y141998D02*
X52770Y142998D01*
X54770D01*
X55769Y141998D01*
Y140999D01*
X54770Y139999D01*
X53770D01*
X54770D01*
X55769Y138999D01*
Y138000D01*
X54770Y137000D01*
X52770D01*
X51771Y138000D01*
X61767Y137000D02*
X57769D01*
X61767Y140999D01*
Y141998D01*
X60768Y142998D01*
X58768D01*
X57769Y141998D01*
X67765Y142998D02*
X63767D01*
Y139999D01*
X65766D01*
X63767D01*
Y137000D01*
X72764D02*
Y142998D01*
X69765Y139999D01*
X73764D01*
X75763Y141998D02*
X76763Y142998D01*
X78762D01*
X79762Y141998D01*
Y138000D01*
X78762Y137000D01*
X76763D01*
X75763Y138000D01*
Y141998D01*
X81761Y142998D02*
X85760D01*
Y141998D01*
X81761Y138000D01*
Y137000D01*
X87759Y142998D02*
Y138999D01*
X89758Y137000D01*
X91758Y138999D01*
Y142998D01*
D38*
X68091Y108866D02*
G03*
X68091Y108866I-1181J0D01*
G01*
D39*
X137777Y158000D02*
X147776D01*
Y148000D02*
Y158000D01*
X137777Y148000D02*
X147776D01*
X137777D02*
Y158000D01*
X127777D02*
X137777D01*
Y148000D02*
Y158000D01*
X127777Y148000D02*
X137777D01*
X127777D02*
Y158000D01*
Y148000D02*
Y158000D01*
X117777Y148000D02*
X127777D01*
X117777D02*
Y158000D01*
X127777D01*
X117777Y148000D02*
Y158000D01*
X107776Y148000D02*
X117777D01*
X107776D02*
Y158000D01*
X117777D01*
X107776Y148000D02*
Y158000D01*
X97777Y148000D02*
X107776D01*
X97777D02*
Y158000D01*
X107776D01*
X97777Y148000D02*
Y158000D01*
X87776Y148000D02*
X97777D01*
X87776D02*
Y158000D01*
X97777D01*
X137777Y168000D02*
X147776D01*
Y158000D02*
Y168000D01*
X137777Y158000D02*
X147776D01*
X137777D02*
Y168000D01*
X127777D02*
X137777D01*
Y158000D02*
Y168000D01*
X127777Y158000D02*
X137777D01*
X127777D02*
Y168000D01*
X117777D02*
X127777D01*
Y158000D02*
Y168000D01*
X117777Y158000D02*
X127777D01*
X117777D02*
Y168000D01*
Y158000D02*
Y168000D01*
X107776Y158000D02*
X117777D01*
X107776D02*
Y168000D01*
X117777D01*
X107776Y158000D02*
Y168000D01*
X97777Y158000D02*
X107776D01*
X97777D02*
Y168000D01*
X107776D01*
X97777Y158000D02*
Y168000D01*
X87776Y158000D02*
X97777D01*
X87776D02*
Y168000D01*
X97777D01*
X87776Y158000D02*
Y168000D01*
X77776Y158000D02*
X87776D01*
X77776D02*
Y168000D01*
X87776D01*
X77776Y148000D02*
Y158000D01*
X67777Y148000D02*
X77776D01*
X67777D02*
Y158000D01*
X77776D01*
X87776Y148000D02*
Y158000D01*
X77776Y148000D02*
X87776D01*
X77776D02*
Y158000D01*
X87776D01*
X67777Y148000D02*
Y158000D01*
X57776Y148000D02*
X67777D01*
X57776D02*
Y158000D01*
X67777D01*
X57776Y148000D02*
Y158000D01*
X47776Y148000D02*
X57776D01*
X47776D02*
Y158000D01*
X57776D01*
X47776Y148000D02*
Y158000D01*
X37776Y148000D02*
X47776D01*
X37776D02*
Y158000D01*
X47776D01*
X37776Y148000D02*
Y158000D01*
X27777Y148000D02*
X37776D01*
X27777D02*
Y158000D01*
X37776D01*
X77776D02*
Y168000D01*
X67777Y158000D02*
X77776D01*
X67777D02*
Y168000D01*
X77776D01*
X67777Y158000D02*
Y168000D01*
X57776Y158000D02*
X67777D01*
X57776D02*
Y168000D01*
X67777D01*
X47776D02*
X57776D01*
Y158000D02*
Y168000D01*
X47776Y158000D02*
X57776D01*
X47776D02*
Y168000D01*
Y158000D02*
Y168000D01*
X37776Y158000D02*
X47776D01*
X37776D02*
Y168000D01*
X47776D01*
X27777D02*
X37776D01*
Y158000D02*
Y168000D01*
X27777Y158000D02*
X37776D01*
X27777D02*
Y168000D01*
X62973Y63197D02*
X112580D01*
X62973Y112803D02*
X112580D01*
Y63197D02*
Y112803D01*
X62973Y63197D02*
Y112803D01*
X27777Y118000D02*
Y128000D01*
X17776Y118000D02*
X27777D01*
X17776D02*
Y128000D01*
X27777D01*
X17776Y118000D02*
X27777D01*
Y108000D02*
Y118000D01*
X17776Y108000D02*
X27777D01*
X17776D02*
Y118000D01*
Y108000D02*
X27777D01*
Y98000D02*
Y108000D01*
X17776Y98000D02*
X27777D01*
X17776D02*
Y108000D01*
X14887Y72764D02*
X15477D01*
X14887Y93236D02*
X15477D01*
X28076Y72764D02*
X28666D01*
X28076Y93236D02*
X28666D01*
X14887Y72764D02*
Y93236D01*
X28666Y72764D02*
Y93236D01*
X147776Y168000D02*
X157776D01*
Y158000D02*
Y168000D01*
X147776Y158000D02*
X157776D01*
X147776D02*
Y168000D01*
X157776D02*
X167777D01*
Y158000D02*
Y168000D01*
X157776Y158000D02*
X167777D01*
X157776D02*
Y168000D01*
X147776Y128000D02*
X157776D01*
Y118000D02*
Y128000D01*
X147776Y118000D02*
X157776D01*
X147776D02*
Y128000D01*
Y138000D02*
X157776D01*
Y128000D02*
Y138000D01*
X147776Y128000D02*
X157776D01*
X147776D02*
Y138000D01*
Y148000D01*
Y138000D02*
X157776D01*
Y148000D01*
X147776D02*
X157776D01*
X147776Y158000D02*
X157776D01*
Y148000D02*
Y158000D01*
X147776Y148000D02*
X157776D01*
X147776D02*
Y158000D01*
X157776D02*
X167777D01*
Y148000D02*
Y158000D01*
X157776Y148000D02*
X167777D01*
X157776D02*
Y158000D01*
Y138000D02*
Y148000D01*
Y138000D02*
X167777D01*
Y148000D01*
X157776D02*
X167777D01*
X157776Y138000D02*
X167777D01*
Y128000D02*
Y138000D01*
X157776Y128000D02*
X167777D01*
X157776D02*
Y138000D01*
Y128000D02*
X167777D01*
Y118000D02*
Y128000D01*
X157776Y118000D02*
X167777D01*
X157776D02*
Y128000D01*
Y98000D02*
Y108000D01*
X147776Y98000D02*
X157776D01*
X147776D02*
Y108000D01*
X157776D01*
Y88000D02*
Y98000D01*
X147776Y88000D02*
X157776D01*
X147776D02*
Y98000D01*
X157776D01*
Y108000D02*
Y118000D01*
X147776Y108000D02*
X157776D01*
X147776D02*
Y118000D01*
X157776D01*
X167777Y108000D02*
Y118000D01*
X157776Y108000D02*
X167777D01*
X157776D02*
Y118000D01*
X167777D01*
Y98000D02*
Y108000D01*
X157776Y98000D02*
X167777D01*
X157776D02*
Y108000D01*
X167777D01*
Y88000D02*
Y98000D01*
X157776Y88000D02*
X167777D01*
X157776D02*
Y98000D01*
X167777D01*
X147776Y88000D02*
X157776D01*
Y78000D02*
Y88000D01*
X147776Y78000D02*
X157776D01*
X147776D02*
Y88000D01*
X157776D02*
X167777D01*
Y78000D02*
Y88000D01*
X157776Y78000D02*
X167777D01*
X157776D02*
Y88000D01*
X147776Y78000D02*
X157776D01*
Y68000D02*
Y78000D01*
X147776Y68000D02*
X157776D01*
X147776D02*
Y78000D01*
Y68000D02*
X157776D01*
Y58000D02*
Y68000D01*
X147776Y58000D02*
X157776D01*
X147776D02*
Y68000D01*
X157776Y48000D02*
Y58000D01*
X147776Y48000D02*
X157776D01*
X147776D02*
Y58000D01*
X157776D01*
Y78000D02*
X167777D01*
Y68000D02*
Y78000D01*
X157776Y68000D02*
X167777D01*
X157776D02*
Y78000D01*
Y68000D02*
X167777D01*
Y58000D02*
Y68000D01*
X157776Y58000D02*
X167777D01*
X157776D02*
Y68000D01*
X147776Y38000D02*
X157776D01*
Y28000D02*
Y38000D01*
X147776Y28000D02*
X157776D01*
X147776D02*
Y38000D01*
Y28000D02*
X157776D01*
Y18000D02*
Y28000D01*
X147776Y18000D02*
X157776D01*
X147776D02*
Y28000D01*
Y48000D02*
X157776D01*
Y38000D02*
Y48000D01*
X147776Y38000D02*
X157776D01*
X147776D02*
Y48000D01*
X167777D02*
Y58000D01*
X157776Y48000D02*
X167777D01*
X157776D02*
Y58000D01*
X167777D01*
X157776Y48000D02*
X167777D01*
Y38000D02*
Y48000D01*
X157776Y38000D02*
X167777D01*
X157776D02*
Y48000D01*
Y38000D02*
X167777D01*
Y28000D02*
Y38000D01*
X157776Y28000D02*
X167777D01*
X157776D02*
Y38000D01*
Y28000D02*
X167777D01*
Y18000D02*
Y28000D01*
X157776Y18000D02*
X167777D01*
X157776D02*
Y28000D01*
Y18000D02*
X167777D01*
Y8000D02*
Y18000D01*
X157776Y8000D02*
X167777D01*
X157776D02*
Y18000D01*
X147776D02*
X157776D01*
Y8000D02*
Y18000D01*
X147776Y8000D02*
X157776D01*
X147776D02*
Y18000D01*
X137777Y28000D02*
X147776D01*
Y18000D02*
Y28000D01*
X137777Y18000D02*
X147776D01*
X137777D02*
Y28000D01*
Y18000D02*
X147776D01*
Y8000D02*
Y18000D01*
X137777Y8000D02*
X147776D01*
X137777D02*
Y18000D01*
X127777Y28000D02*
X137777D01*
Y18000D02*
Y28000D01*
X127777Y18000D02*
X137777D01*
X127777D02*
Y28000D01*
Y18000D02*
X137777D01*
Y8000D02*
Y18000D01*
X127777Y8000D02*
X137777D01*
X127777D02*
Y18000D01*
X117777Y28000D02*
X127777D01*
Y18000D02*
Y28000D01*
X117777Y18000D02*
X127777D01*
X117777D02*
Y28000D01*
Y18000D02*
X127777D01*
Y8000D02*
Y18000D01*
X117777Y8000D02*
X127777D01*
X117777D02*
Y18000D01*
X107776Y28000D02*
X117777D01*
Y18000D02*
Y28000D01*
X107776Y18000D02*
X117777D01*
X107776D02*
Y28000D01*
Y18000D02*
X117777D01*
Y8000D02*
Y18000D01*
X107776Y8000D02*
X117777D01*
X107776D02*
Y18000D01*
X97777Y28000D02*
X107776D01*
Y18000D02*
Y28000D01*
X97777Y18000D02*
X107776D01*
X97777D02*
Y28000D01*
Y8000D02*
Y18000D01*
X87776Y8000D02*
X97777D01*
X87776D02*
Y18000D01*
X97777D01*
X107776Y8000D02*
Y18000D01*
X97777Y8000D02*
X107776D01*
X97777D02*
Y18000D01*
X107776D01*
X87776Y8000D02*
Y18000D01*
X77776Y8000D02*
X87776D01*
X77776D02*
Y18000D01*
X87776D01*
X77776Y8000D02*
Y18000D01*
X67777Y8000D02*
X77776D01*
X67777D02*
Y18000D01*
X77776D01*
X67777Y8000D02*
Y18000D01*
X57776Y8000D02*
X67777D01*
X57776D02*
Y18000D01*
X67777D01*
X57776Y8000D02*
Y18000D01*
X47776Y8000D02*
X57776D01*
X47776D02*
Y18000D01*
X57776D01*
X47776Y8000D02*
Y18000D01*
X37776Y8000D02*
X47776D01*
X37776D02*
Y18000D01*
X47776D01*
X97777D02*
Y28000D01*
X87776Y18000D02*
X97777D01*
X87776D02*
Y28000D01*
X97777D01*
X87776Y18000D02*
Y28000D01*
X77776Y18000D02*
X87776D01*
X77776D02*
Y28000D01*
X87776D01*
X77776Y18000D02*
Y28000D01*
X67777Y18000D02*
X77776D01*
X67777D02*
Y28000D01*
X77776D01*
X67777Y18000D02*
Y28000D01*
X57776Y18000D02*
X67777D01*
X57776D02*
Y28000D01*
X67777D01*
X57776Y18000D02*
Y28000D01*
X47776Y18000D02*
X57776D01*
X47776D02*
Y28000D01*
X57776D01*
X47776Y18000D02*
Y28000D01*
X37776Y18000D02*
X47776D01*
X37776D02*
Y28000D01*
X47776D01*
X17776D02*
X27777D01*
Y18000D02*
Y28000D01*
X17776Y18000D02*
X27777D01*
X17776D02*
Y28000D01*
X27777Y18000D02*
Y28000D01*
Y18000D02*
X37776D01*
Y28000D01*
X27777D02*
X37776D01*
X17776Y18000D02*
X27777D01*
Y8000D02*
Y18000D01*
X17776Y8000D02*
X27777D01*
X17776D02*
Y18000D01*
X27777Y8000D02*
Y18000D01*
Y8000D02*
X37776D01*
Y18000D01*
X27777D02*
X37776D01*
X7777D02*
X17776D01*
Y8000D02*
Y18000D01*
X7777Y8000D02*
X17776D01*
X7777D02*
Y18000D01*
Y28000D02*
X17776D01*
Y18000D02*
Y28000D01*
X7777Y18000D02*
X17776D01*
X7777D02*
Y28000D01*
X17776D02*
Y38000D01*
X7777Y28000D02*
X17776D01*
X7777D02*
Y38000D01*
X17776D01*
Y48000D01*
X7777Y38000D02*
X17776D01*
X7777D02*
Y48000D01*
X17776D01*
Y58000D01*
X7777Y48000D02*
X17776D01*
X7777D02*
Y58000D01*
X17776D01*
X27777Y28000D02*
Y38000D01*
X17776Y28000D02*
X27777D01*
X17776D02*
Y38000D01*
X27777D01*
Y48000D01*
X17776Y38000D02*
X27777D01*
X17776D02*
Y48000D01*
X27777D01*
Y58000D01*
X17776Y48000D02*
X27777D01*
X17776D02*
Y58000D01*
X27777D01*
Y68000D01*
X17776Y58000D02*
X27777D01*
X17776D02*
Y68000D01*
X27777D01*
X7777D02*
X17776D01*
Y58000D02*
Y68000D01*
X7777Y58000D02*
X17776D01*
X7777D02*
Y68000D01*
X12154Y75606D02*
Y76394D01*
X9398Y75606D02*
Y76394D01*
X12154Y89606D02*
Y90394D01*
X9398Y89606D02*
Y90394D01*
X7777Y108000D02*
X17776D01*
Y98000D02*
Y108000D01*
X7777Y98000D02*
X17776D01*
X7777D02*
Y108000D01*
Y118000D02*
X17776D01*
Y108000D02*
Y118000D01*
X7777Y108000D02*
X17776D01*
X7777D02*
Y118000D01*
X17776D02*
Y128000D01*
X7777Y118000D02*
X17776D01*
X7777D02*
Y128000D01*
X17776D01*
Y158000D02*
X27777D01*
Y148000D02*
Y158000D01*
X17776Y148000D02*
X27777D01*
X17776D02*
Y158000D01*
Y168000D02*
X27777D01*
Y158000D02*
Y168000D01*
X17776Y158000D02*
X27777D01*
X17776D02*
Y168000D01*
X27777Y138000D02*
Y148000D01*
X17776Y138000D02*
X27777D01*
X17776D02*
Y148000D01*
X27777D01*
Y128000D02*
Y138000D01*
X17776Y128000D02*
X27777D01*
X17776D02*
Y138000D01*
X27777D01*
X17776Y128000D02*
Y138000D01*
X7777Y128000D02*
X17776D01*
X7777D02*
Y138000D01*
X17776D01*
X7777Y148000D02*
X17776D01*
Y138000D02*
Y148000D01*
X7777Y138000D02*
X17776D01*
X7777D02*
Y148000D01*
Y158000D02*
X17776D01*
Y148000D02*
Y158000D01*
X7777Y148000D02*
X17776D01*
X7777D02*
Y158000D01*
Y168000D02*
X17776D01*
Y158000D02*
Y168000D01*
X7777Y158000D02*
X17776D01*
X7777D02*
Y168000D01*
M02*
