%FSLAX25Y25*%
%MOIN*%
G70*
G01*
G75*
G04 Layer_Physical_Order=1*
G04 Layer_Color=255*
%ADD10C,0.01000*%
%ADD11C,0.01200*%
%ADD12O,0.01181X0.06890*%
%ADD13O,0.06890X0.01181*%
%ADD14R,0.09449X0.07874*%
%ADD15R,0.03543X0.03740*%
%ADD16R,0.06000X0.18000*%
%ADD17R,0.18000X0.04000*%
%ADD18R,0.10000X0.08248*%
%ADD19R,0.06000X0.08000*%
%ADD20R,0.08000X0.06000*%
%ADD21R,0.06000X0.08500*%
%ADD22R,0.08500X0.06000*%
%ADD23R,0.18000X0.06000*%
%ADD24R,0.10000X0.08500*%
%ADD25R,0.07500X0.12000*%
%ADD26R,0.05906X0.05906*%
%ADD27R,0.05906X0.05906*%
%ADD28C,0.02400*%
%ADD29C,0.04500*%
G36*
X175277Y500D02*
X277D01*
Y168000D01*
Y175500D01*
X175277D01*
Y500D01*
D02*
G37*
%LPC*%
G36*
X167777Y168000D02*
X7777D01*
Y8000D01*
X167777D01*
Y168000D01*
D02*
G37*
%LPD*%
G36*
X112777Y109214D02*
X111961D01*
X111691Y109161D01*
X111276Y109243D01*
X110418Y109072D01*
X109690Y108586D01*
X109204Y107858D01*
X109033Y107000D01*
X109204Y106142D01*
X109690Y105414D01*
X110418Y104928D01*
X111276Y104757D01*
X112135Y104928D01*
X112336Y105062D01*
X112777Y104826D01*
Y63000D01*
X111451D01*
X111215Y63441D01*
X111349Y63642D01*
X111520Y64500D01*
X111349Y65358D01*
X110863Y66086D01*
X110135Y66572D01*
X109276Y66743D01*
X108418Y66572D01*
X107690Y66086D01*
X107204Y65358D01*
X107033Y64500D01*
X107204Y63642D01*
X107338Y63441D01*
X107103Y63000D01*
X71451D01*
X71215Y63441D01*
X71349Y63642D01*
X71520Y64500D01*
X71349Y65358D01*
X70863Y66086D01*
X70135Y66572D01*
X69276Y66743D01*
X68418Y66572D01*
X67690Y66086D01*
X67204Y65358D01*
X67033Y64500D01*
X67047Y64433D01*
X67010Y64396D01*
X66679Y63900D01*
X66562Y63315D01*
Y63000D01*
X62776D01*
Y68754D01*
X63560D01*
X63925Y68827D01*
X64276Y68757D01*
X65135Y68928D01*
X65863Y69414D01*
X66349Y70142D01*
X66520Y71000D01*
X66349Y71858D01*
X65863Y72586D01*
X65135Y73072D01*
X64276Y73243D01*
X64210Y73230D01*
X64106Y73333D01*
X63610Y73665D01*
X63024Y73781D01*
X62776D01*
Y74660D01*
X63465D01*
X64051Y74776D01*
X64081Y74796D01*
X64276Y74757D01*
X65135Y74928D01*
X65863Y75414D01*
X66349Y76142D01*
X66520Y77000D01*
X66349Y77858D01*
X65863Y78586D01*
X65135Y79072D01*
X64276Y79243D01*
X63418Y79072D01*
X63218Y78938D01*
X62776Y79174D01*
Y88826D01*
X63218Y89062D01*
X63418Y88928D01*
X64276Y88757D01*
X65135Y88928D01*
X65863Y89414D01*
X66349Y90142D01*
X66520Y91000D01*
X66349Y91858D01*
X65863Y92586D01*
X65135Y93072D01*
X64276Y93243D01*
X64129Y93214D01*
X63925Y93350D01*
X63340Y93466D01*
X62776D01*
Y113000D01*
X112777D01*
Y109214D01*
D02*
G37*
D10*
X15781Y82505D02*
G03*
X14586Y83000I-1195J-1195D01*
G01*
D02*
G03*
X15781Y83495I0J1690D01*
G01*
X115777Y58310D02*
G03*
X115281Y59505I-1690J0D01*
G01*
X116271D02*
G03*
X115777Y58310I1195J-1195D01*
G01*
X109430Y62439D02*
G03*
X108782Y64005I-2214J0D01*
G01*
X109772Y64005D02*
G03*
X109430Y63181I824J-824D01*
G01*
X39966Y93000D02*
G03*
X38772Y92505I0J-1690D01*
G01*
Y93495D02*
G03*
X39966Y93000I1195J1195D01*
G01*
X60628Y76189D02*
G03*
X63781Y77495I0J4459D01*
G01*
X63043Y76189D02*
G03*
X64489Y76788I0J2045D01*
G01*
X63340Y91937D02*
G03*
X64147Y91688I639J639D01*
G01*
X63589Y91130D02*
G03*
X63340Y91937I-888J168D01*
G01*
X63781Y90505D02*
G03*
X60324Y91937I-3457J-3457D01*
G01*
X64489Y91212D02*
G03*
X62739Y91937I-1750J-1750D01*
G01*
X63082Y72195D02*
G03*
X64276Y71700I1195J1195D01*
G01*
X63577Y71000D02*
G03*
X63082Y72195I-1690J0D01*
G01*
X60857Y70284D02*
G03*
X63781Y71495I0J4136D01*
G01*
X63271Y70284D02*
G03*
X64489Y70788I0J1722D01*
G01*
X69771Y64005D02*
G03*
X68091Y59949I4056J-4056D01*
G01*
X69064Y64712D02*
G03*
X68091Y62363I2349J-2349D01*
G01*
X68091Y63315D02*
G03*
X68577Y64496I-1171J1171D01*
G01*
X69272Y63800D02*
G03*
X68091Y63315I-10J-1656D01*
G01*
X114620Y107685D02*
G03*
X111772Y106505I0J-4029D01*
G01*
X60277Y115500D02*
G03*
X61240Y115950I0J1257D01*
G01*
Y115050D02*
G03*
X60277Y115500I-963J-807D01*
G01*
X62932Y116601D02*
G03*
X62476Y115500I1101J-1101D01*
G01*
X61777Y116200D02*
G03*
X63066Y116734I0J1823D01*
G01*
X58021Y117756D02*
G03*
X61777Y116200I3756J3756D01*
G01*
X59728Y116049D02*
G03*
X61777Y115200I2049J2049D01*
G01*
X135471Y124195D02*
G03*
X134976Y123000I1195J-1195D01*
G01*
X134276Y123700D02*
G03*
X135471Y124195I0J1690D01*
G01*
X133081Y121805D02*
G03*
X133577Y123000I-1195J1195D01*
G01*
X134276Y122300D02*
G03*
X133081Y121805I0J-1690D01*
G01*
X49972Y131805D02*
G03*
X48777Y132300I-1195J-1195D01*
G01*
X49477Y133000D02*
G03*
X49972Y131805I1690J0D01*
G01*
X52222Y54945D02*
G03*
X51727Y53750I1195J-1195D01*
G01*
X51026Y54450D02*
G03*
X52222Y54945I0J1690D01*
G01*
X13777Y83000D02*
X16276D01*
X137619Y78158D02*
X142777Y73000D01*
Y70000D02*
Y73000D01*
Y70000D02*
X149776Y63000D01*
X135588Y76189D02*
X139777Y72000D01*
Y68000D02*
Y72000D01*
Y68000D02*
X149776Y58000D01*
X133056Y74221D02*
X136776Y70500D01*
Y66000D02*
Y70500D01*
Y66000D02*
X149776Y53000D01*
X130525Y72252D02*
X133776Y69000D01*
Y64000D02*
Y69000D01*
Y64000D02*
X149776Y48000D01*
X127993Y70284D02*
X130777Y67500D01*
Y62000D02*
Y67500D01*
Y62000D02*
X149776Y43000D01*
X125461Y68315D02*
X127777Y66000D01*
Y60000D02*
Y66000D01*
Y60000D02*
X149776Y38000D01*
X122930Y66347D02*
X125277Y64000D01*
Y57500D02*
Y64000D01*
Y57500D02*
X149776Y33000D01*
X120398Y64378D02*
X122776Y62000D01*
Y55000D02*
Y62000D01*
Y55000D02*
X149776Y28000D01*
X63340Y91937D02*
X64276Y91000D01*
X57954Y91937D02*
X63340D01*
X68091Y117823D02*
Y122185D01*
X63276Y127000D02*
X68091Y122185D01*
X60777Y127000D02*
X63276D01*
X42777Y150500D02*
X70060Y123216D01*
Y117823D02*
Y123216D01*
X66123Y117823D02*
Y121653D01*
X63276Y124500D02*
X66123Y121653D01*
X57276Y124500D02*
X63276D01*
X42777Y150500D02*
Y153000D01*
X53182Y93906D02*
X57954D01*
X52276Y93000D02*
X53182Y93906D01*
X38276Y93000D02*
X52276D01*
X81776Y93906D02*
X81871D01*
X48777Y133000D02*
X57276Y124500D01*
X34776Y153000D02*
X60777Y127000D01*
X105777Y106000D02*
X109430Y109653D01*
X99777Y100000D02*
X105777Y106000D01*
X93777Y94000D02*
X99777Y100000D01*
X87776Y88000D02*
X93777Y94000D01*
X81776Y82000D02*
X87776Y88000D01*
X75776Y76000D02*
X81776Y82000D01*
X73997Y74221D02*
X75776Y76000D01*
X99777D02*
X105777Y70000D01*
X93777Y82000D02*
X99777Y76000D01*
X87776Y88000D02*
X93777Y82000D01*
X87776Y18000D02*
Y58177D01*
Y18000D02*
X92777Y13000D01*
X97777Y18000D02*
X102777Y13000D01*
X107776Y18000D02*
X112777Y13000D01*
X117777Y18000D02*
X122776Y13000D01*
X127777Y18000D02*
X132776Y13000D01*
X97777Y18000D02*
Y26000D01*
X102777Y23000D02*
Y26000D01*
X107776Y18000D02*
Y26000D01*
X112777Y23000D02*
Y26000D01*
X117777Y18000D02*
Y26000D01*
X122776Y23000D02*
Y26000D01*
X127777Y18000D02*
Y26000D01*
X132776Y23000D02*
Y26000D01*
X91714Y32063D02*
X97777Y26000D01*
X93682Y35094D02*
X102777Y26000D01*
X95651Y38126D02*
X107776Y26000D01*
X97619Y41157D02*
X112777Y26000D01*
X99588Y44189D02*
X117777Y26000D01*
X101556Y47221D02*
X122776Y26000D01*
X103524Y50252D02*
X127777Y26000D01*
X105493Y53284D02*
X132776Y26000D01*
X77776Y18000D02*
X82776Y13000D01*
X67777Y18000D02*
X72777Y13000D01*
X57776Y18000D02*
X62776Y13000D01*
X47776Y18000D02*
X52776Y13000D01*
X77776Y18000D02*
Y26000D01*
X83839Y32063D01*
Y58177D01*
X72777Y23000D02*
Y26000D01*
X81871Y35094D01*
Y58177D01*
X67777Y18000D02*
Y26000D01*
X79902Y38126D01*
Y58177D01*
X62776Y23000D02*
Y26000D01*
X77934Y41157D01*
Y58177D01*
X57776Y18000D02*
Y26000D01*
X75965Y44189D01*
Y58177D01*
X52776Y23000D02*
Y26000D01*
X73997Y47221D01*
Y58177D01*
X47776Y18000D02*
Y26000D01*
X72028Y50252D01*
Y58177D01*
X42777Y23000D02*
Y26000D01*
X70060Y53284D01*
Y58177D01*
X37776Y18000D02*
X42777Y13000D01*
X37776Y18000D02*
Y26000D01*
X64154Y52378D01*
Y58177D01*
X107462Y54315D02*
Y58177D01*
X91714Y32063D02*
Y58177D01*
X93682Y35094D02*
Y58177D01*
X95651Y38126D02*
Y58177D01*
X97619Y41157D02*
Y58177D01*
X99588Y44189D02*
Y58177D01*
X101556Y47221D02*
Y58177D01*
X103524Y50252D02*
Y58177D01*
X105493Y53284D02*
Y58177D01*
X117599Y88000D02*
X157776D01*
X162777Y93000D01*
X157776Y78000D02*
X162777Y83000D01*
X157776Y68000D02*
X162777Y73000D01*
X157776Y58000D02*
X162777Y63000D01*
X157776Y48000D02*
X162777Y53000D01*
X157776Y98000D02*
X162777Y103000D01*
X157776Y108000D02*
X162777Y113000D01*
X157776Y118000D02*
X162777Y123000D01*
X157776Y128000D02*
X162777Y133000D01*
X87776Y117823D02*
Y158000D01*
X82776Y163000D02*
X87776Y158000D01*
X92777Y163000D02*
X97777Y158000D01*
X102777Y163000D02*
X107776Y158000D01*
X112777Y163000D02*
X117777Y158000D01*
X122776Y163000D02*
X127777Y158000D01*
X72777Y163000D02*
X77776Y158000D01*
X62776Y163000D02*
X67777Y158000D01*
X52776Y163000D02*
X57776Y158000D01*
X42777Y163000D02*
X47776Y158000D01*
X117599Y84063D02*
X143713D01*
X149776Y78000D01*
X157776D01*
X82776Y23000D02*
Y26000D01*
X85808Y29032D01*
Y58177D01*
X89745Y29032D02*
Y58177D01*
Y29032D02*
X92777Y26000D01*
Y23000D02*
Y26000D01*
X117599Y86032D02*
X146745D01*
X149776Y83000D01*
X152777D01*
X117599Y89969D02*
X146745D01*
X149776Y93000D01*
X152777D01*
X117599Y91937D02*
X143713D01*
X149776Y98000D01*
X157776D01*
X117599Y93906D02*
X140682D01*
X149776Y103000D01*
X152777D01*
X149776Y108000D02*
X157776D01*
X149776Y113000D02*
X152777D01*
X149776Y118000D02*
X157776D01*
X149776Y123000D02*
X152777D01*
X149776Y128000D02*
X157776D01*
X149776Y68000D02*
X157776D01*
X149776Y63000D02*
X152777D01*
X149776Y58000D02*
X157776D01*
X149776Y53000D02*
X152777D01*
X149776Y48000D02*
X157776D01*
X82776Y150000D02*
Y153000D01*
Y150000D02*
X85808Y146968D01*
Y117823D02*
Y146968D01*
X77776Y150000D02*
Y158000D01*
Y150000D02*
X83839Y143937D01*
Y117823D02*
Y143937D01*
X72777Y150000D02*
Y153000D01*
Y150000D02*
X81871Y140905D01*
Y117823D02*
Y140905D01*
X67777Y150000D02*
Y158000D01*
Y150000D02*
X79902Y137874D01*
Y117823D02*
Y137874D01*
X62776Y150000D02*
Y153000D01*
Y150000D02*
X77934Y134843D01*
Y117823D02*
Y134843D01*
X57776Y150000D02*
Y158000D01*
Y150000D02*
X75965Y131811D01*
Y117823D02*
Y131811D01*
X52776Y150000D02*
Y153000D01*
Y150000D02*
X73997Y128779D01*
Y117823D02*
Y128779D01*
X47776Y150000D02*
Y158000D01*
Y150000D02*
X72028Y125748D01*
Y117823D02*
Y125748D01*
X91714Y117823D02*
Y143937D01*
X97777Y150000D01*
Y158000D01*
X102777Y150000D02*
Y153000D01*
X107776Y150000D02*
Y158000D01*
X112777Y150000D02*
Y153000D01*
X117777Y150000D02*
Y158000D01*
X122776Y150000D02*
Y153000D01*
X127777Y150000D02*
Y158000D01*
X132776Y150000D02*
Y153000D01*
X12776Y163000D02*
X22776Y153000D01*
X152777D02*
X162777Y163000D01*
X12776Y13000D02*
X22776Y23000D01*
X152777D02*
X162777Y13000D01*
X12776Y103000D02*
X17776Y98000D01*
X12776Y113000D02*
X17776Y108000D01*
X12776Y123000D02*
X17776Y118000D01*
X12776Y133000D02*
X17776Y128000D01*
X12776Y63000D02*
X17776Y68000D01*
X12776Y53000D02*
X17776Y58000D01*
X22776Y63000D02*
X25776D01*
X17776Y58000D02*
X25776D01*
X22776Y53000D02*
X25776D01*
X12776Y43000D02*
X17776Y48000D01*
X25776D01*
X22776Y43000D02*
X25776D01*
X51091Y68315D01*
X57954D01*
X12776Y33000D02*
X17776Y38000D01*
X25776Y48000D02*
X50276Y72500D01*
X25776Y53000D02*
X45276Y72500D01*
X25776Y58000D02*
X40277Y72500D01*
X25776Y63000D02*
X35276Y72500D01*
X30277Y78000D02*
X38308Y86032D01*
X57954D01*
X35276Y72500D02*
Y77500D01*
X41840Y84063D01*
X57954D01*
X40277Y72500D02*
Y77000D01*
X45371Y82095D01*
X57954D01*
X45276Y72500D02*
Y76500D01*
X48902Y80126D01*
X57954D01*
X50276Y72500D02*
Y76500D01*
X51934Y78158D01*
X57954D01*
X17776Y38000D02*
X25776D01*
X54123Y66347D01*
X57954D01*
X22776Y33000D02*
X25776D01*
X57154Y64378D01*
X57954D01*
X22776Y143000D02*
X25776D01*
X57154Y111622D01*
X57954D01*
X22776Y133000D02*
X27777D01*
X51123Y109653D01*
X57954D01*
X17776Y128000D02*
X27777D01*
X48091Y107685D01*
X57954D01*
X22776Y123000D02*
X27777D01*
X45060Y105717D01*
X57954D01*
X17776Y118000D02*
X27777D01*
X42028Y103748D01*
X57954D01*
X22776Y113000D02*
X27777D01*
X38997Y101779D01*
X57954D01*
X17776Y108000D02*
X27777D01*
X35965Y99811D01*
X57954D01*
X22776Y103000D02*
X27777D01*
X32934Y97843D01*
X57954D01*
X17776Y98000D02*
X27777D01*
X29902Y95874D01*
X57954D01*
X17776Y68000D02*
X26776D01*
X30277Y71500D01*
Y78000D01*
X22682Y89969D02*
X57954D01*
X157776Y38000D02*
X162777Y43000D01*
X157776Y28000D02*
X162777Y33000D01*
X149776Y133000D02*
X152777D01*
X117599Y82095D02*
X141682D01*
X150777Y73000D01*
X152777D01*
X117599Y80126D02*
X139650D01*
X117599Y78158D02*
X137619D01*
X117599Y76189D02*
X135588D01*
X117599Y74221D02*
X133056D01*
X117599Y72252D02*
X130525D01*
X117599Y70284D02*
X127993D01*
X149776Y38000D02*
X157776D01*
X149776Y43000D02*
X152777D01*
X149776Y33000D02*
X152777D01*
X149776Y28000D02*
X157776D01*
X122493Y105717D02*
X149776Y133000D01*
X117599Y105717D02*
X122493D01*
X125524Y103748D02*
X149776Y128000D01*
X117599Y103748D02*
X125524D01*
X128556Y101779D02*
X149776Y123000D01*
X117599Y101779D02*
X128556D01*
X131588Y99811D02*
X149776Y118000D01*
X117599Y99811D02*
X131588D01*
X117599Y97843D02*
X134619D01*
X149776Y113000D01*
X137651Y95874D02*
X149776Y108000D01*
X117599Y95874D02*
X137651D01*
X117599Y64378D02*
X120398D01*
X117599Y66347D02*
X122930D01*
X117599Y68315D02*
X125461D01*
X93682Y117823D02*
Y141905D01*
X132776Y163000D02*
X137777Y158000D01*
Y150000D02*
Y158000D01*
X142777Y150000D02*
Y153000D01*
X111398Y117823D02*
Y121122D01*
X142777Y163000D02*
X147776Y158000D01*
X92777Y150000D02*
Y153000D01*
X89745Y117823D02*
Y146968D01*
X92777Y150000D01*
X95651Y117823D02*
Y139874D01*
X97619Y117823D02*
Y137843D01*
X99588Y117823D02*
Y135311D01*
X101556Y117823D02*
Y132780D01*
X105493Y117823D02*
Y127717D01*
X107462Y117823D02*
Y125185D01*
X109430Y117823D02*
Y123153D01*
X103524Y117823D02*
Y130248D01*
X152777Y143000D02*
X162777D01*
X32776Y13000D02*
Y23000D01*
X22776Y8000D02*
Y13000D01*
X7777Y8000D02*
X22776D01*
X7777D02*
Y23000D01*
X12776D01*
X142777Y8000D02*
Y13000D01*
Y8000D02*
X152777D01*
Y13000D01*
X162777Y23000D02*
X167777D01*
Y8000D02*
Y23000D01*
X152777Y8000D02*
X167777D01*
X32776D02*
Y13000D01*
X22776Y8000D02*
X32776D01*
X142777D01*
X7777Y143000D02*
X12776D01*
X7777D02*
Y153000D01*
X12776D01*
X7777D02*
Y168000D01*
X22776D01*
Y163000D02*
Y168000D01*
X32776D01*
Y163000D02*
Y168000D01*
X152777D01*
Y163000D02*
Y168000D01*
X167777D01*
Y153000D02*
Y168000D01*
X162777Y153000D02*
X167777D01*
Y143000D02*
Y153000D01*
X162777Y143000D02*
X167777D01*
Y23000D02*
Y143000D01*
X147776Y150000D02*
Y158000D01*
X117599Y109653D02*
X122430D01*
X152777Y141500D02*
Y143000D01*
X140777Y23000D02*
X142777D01*
X66123Y109653D02*
Y117823D01*
X81871Y93906D02*
X87776Y88000D01*
X66123Y109653D02*
X81871Y93906D01*
X109430Y109653D02*
X117599D01*
X66123Y58177D02*
Y66347D01*
X57954Y74221D02*
X73997D01*
X111398Y121122D02*
X113277Y123000D01*
X120776D01*
X147776Y150000D01*
X109430Y123153D02*
X111776Y125500D01*
X118277D01*
X142777Y150000D01*
X107462Y125185D02*
X110276Y128000D01*
X115777D01*
X137777Y150000D01*
X105493Y127717D02*
X108276Y130500D01*
X113277D01*
X132776Y150000D01*
X103524Y130248D02*
X106277Y133000D01*
X110776D01*
X127777Y150000D01*
X101556Y132780D02*
X104277Y135500D01*
X108276D01*
X122776Y150000D01*
X99588Y135311D02*
X102277Y138000D01*
X105777D01*
X117777Y150000D01*
X97619Y137843D02*
X100277Y140500D01*
X103277D01*
X112777Y150000D01*
X95651Y139874D02*
X98777Y143000D01*
X100777D01*
X107776Y150000D01*
X93682Y141905D02*
X97277Y145500D01*
X98277D01*
X102777Y150000D01*
X32776Y153000D02*
X34776D01*
X139650Y80126D02*
X145276Y74500D01*
Y72500D02*
X149776Y68000D01*
X145276Y72500D02*
Y74500D01*
X125277Y114000D02*
X152777Y141500D01*
X122430Y109653D02*
X125277Y112500D01*
Y114000D01*
X107462Y54315D02*
X109776Y52000D01*
X111776D01*
X140777Y23000D01*
X7777D02*
Y68000D01*
X66123Y66347D02*
X73997Y74221D01*
X21777Y75126D02*
X22903D01*
X35776Y88000D01*
X57954D01*
X68091Y58177D02*
Y63315D01*
X69276Y64500D01*
X57954Y70284D02*
X63560D01*
X64276Y71000D01*
X57954Y72252D02*
X63024D01*
X64276Y71000D01*
X115777Y58000D02*
X150777Y23000D01*
X152777D01*
X115777Y58000D02*
Y60000D01*
X111576Y58000D02*
X115777D01*
X22776Y153000D02*
X60277Y115500D01*
X61777D01*
X61832D02*
X64154Y117823D01*
X111961Y107685D02*
X117599D01*
X111276Y107000D02*
X111961Y107685D01*
X109430Y58177D02*
Y64346D01*
X57954Y76189D02*
X63465D01*
X64276Y77000D01*
X118277Y112000D02*
X120276Y114000D01*
X146776Y145000D02*
X152777Y151000D01*
X120276Y114000D02*
X146776Y142500D01*
Y145000D01*
X51026Y53750D02*
X55286Y58010D01*
X57786D01*
D11*
X48715Y42439D02*
G03*
X46876Y38000I4439J-4439D01*
G01*
X46666Y40390D02*
G03*
X45676Y38000I2390J-2390D01*
G01*
X46277Y37400D02*
G03*
X41838Y35561I0J-6277D01*
G01*
X46277Y38600D02*
G03*
X43887Y37610I0J-3380D01*
G01*
X57786Y58010D02*
X66123Y66347D01*
X32776Y23000D02*
Y26500D01*
X57786Y51510D01*
Y58010D01*
D12*
X64154Y117823D02*
D03*
X66123D02*
D03*
X68091D02*
D03*
X70060D02*
D03*
X72028D02*
D03*
X73997D02*
D03*
X75965D02*
D03*
X77934D02*
D03*
X79902D02*
D03*
X81871D02*
D03*
X83839D02*
D03*
X85808D02*
D03*
X87776D02*
D03*
X89745D02*
D03*
X91714D02*
D03*
X93682D02*
D03*
X95651D02*
D03*
X97619D02*
D03*
X99588D02*
D03*
X101556D02*
D03*
X103524D02*
D03*
X105493D02*
D03*
X107462D02*
D03*
X109430D02*
D03*
X111398D02*
D03*
Y58177D02*
D03*
X109430D02*
D03*
X107462D02*
D03*
X105493D02*
D03*
X103524D02*
D03*
X101556D02*
D03*
X99588D02*
D03*
X97619D02*
D03*
X95651D02*
D03*
X93682D02*
D03*
X91714D02*
D03*
X89745D02*
D03*
X87776D02*
D03*
X85808D02*
D03*
X83839D02*
D03*
X81871D02*
D03*
X79902D02*
D03*
X77934D02*
D03*
X75965D02*
D03*
X73997D02*
D03*
X72028D02*
D03*
X70060D02*
D03*
X68091D02*
D03*
X66123D02*
D03*
X64154D02*
D03*
D13*
X117599Y111622D02*
D03*
Y109653D02*
D03*
Y107685D02*
D03*
Y105717D02*
D03*
Y103748D02*
D03*
Y101779D02*
D03*
Y99811D02*
D03*
Y97843D02*
D03*
Y95874D02*
D03*
Y93906D02*
D03*
Y91937D02*
D03*
Y89969D02*
D03*
Y88000D02*
D03*
Y86032D02*
D03*
Y84063D02*
D03*
Y82095D02*
D03*
Y80126D02*
D03*
Y78158D02*
D03*
Y76189D02*
D03*
Y74221D02*
D03*
Y72252D02*
D03*
Y70284D02*
D03*
Y68315D02*
D03*
Y66347D02*
D03*
Y64378D02*
D03*
X57954D02*
D03*
Y66347D02*
D03*
Y68315D02*
D03*
Y70284D02*
D03*
Y72252D02*
D03*
Y74221D02*
D03*
Y76189D02*
D03*
Y78158D02*
D03*
Y80126D02*
D03*
Y82095D02*
D03*
Y84063D02*
D03*
Y86032D02*
D03*
Y88000D02*
D03*
Y89969D02*
D03*
Y91937D02*
D03*
Y93906D02*
D03*
Y95874D02*
D03*
Y97843D02*
D03*
Y99811D02*
D03*
Y101779D02*
D03*
Y103748D02*
D03*
Y105717D02*
D03*
Y107685D02*
D03*
Y109653D02*
D03*
Y111622D02*
D03*
D14*
X21777Y75126D02*
D03*
Y90874D02*
D03*
D15*
X10776Y79051D02*
D03*
Y72949D02*
D03*
Y93051D02*
D03*
Y86949D02*
D03*
D16*
X32776Y17000D02*
D03*
D17*
X17776Y93000D02*
D03*
Y73000D02*
D03*
D18*
X21777Y75376D02*
D03*
D19*
X22776Y164000D02*
D03*
X32776D02*
D03*
X22776Y12000D02*
D03*
X152777Y164000D02*
D03*
D20*
X11777Y153000D02*
D03*
Y143000D02*
D03*
Y23000D02*
D03*
X163777Y153000D02*
D03*
D21*
X142777Y11750D02*
D03*
X152777D02*
D03*
D22*
X164026Y23000D02*
D03*
D23*
X158776Y143000D02*
D03*
D24*
X21777Y90750D02*
D03*
D25*
X11027Y83000D02*
D03*
D26*
X142777Y153000D02*
D03*
X132776D02*
D03*
X142777Y163000D02*
D03*
X132776D02*
D03*
X122776D02*
D03*
X52776D02*
D03*
X32776D02*
D03*
X22776Y113000D02*
D03*
Y103000D02*
D03*
X152777Y163000D02*
D03*
X162777D02*
D03*
X152777Y123000D02*
D03*
Y133000D02*
D03*
Y143000D02*
D03*
Y153000D02*
D03*
X162777D02*
D03*
Y143000D02*
D03*
Y133000D02*
D03*
Y123000D02*
D03*
X152777Y83000D02*
D03*
X162777D02*
D03*
X152777Y73000D02*
D03*
Y63000D02*
D03*
X162777Y73000D02*
D03*
Y63000D02*
D03*
X152777Y33000D02*
D03*
Y23000D02*
D03*
Y43000D02*
D03*
X162777D02*
D03*
Y33000D02*
D03*
Y23000D02*
D03*
Y13000D02*
D03*
X152777D02*
D03*
X142777Y23000D02*
D03*
Y13000D02*
D03*
X132776Y23000D02*
D03*
Y13000D02*
D03*
X122776Y23000D02*
D03*
Y13000D02*
D03*
X112777Y23000D02*
D03*
Y13000D02*
D03*
X102777Y23000D02*
D03*
X22776D02*
D03*
X32776D02*
D03*
X22776Y13000D02*
D03*
X32776D02*
D03*
X12776D02*
D03*
Y23000D02*
D03*
Y63000D02*
D03*
Y103000D02*
D03*
Y113000D02*
D03*
X22776Y153000D02*
D03*
Y163000D02*
D03*
X12776Y143000D02*
D03*
Y153000D02*
D03*
Y163000D02*
D03*
D27*
X122776Y153000D02*
D03*
X112777D02*
D03*
X102777D02*
D03*
X92777D02*
D03*
X112777Y163000D02*
D03*
X102777D02*
D03*
X92777D02*
D03*
X82776D02*
D03*
X72777Y153000D02*
D03*
X82776D02*
D03*
X62776D02*
D03*
X52776D02*
D03*
X42777D02*
D03*
X32776D02*
D03*
X72777Y163000D02*
D03*
X62776D02*
D03*
X42777D02*
D03*
X22776Y123000D02*
D03*
X152777Y103000D02*
D03*
Y93000D02*
D03*
Y113000D02*
D03*
X162777D02*
D03*
Y103000D02*
D03*
Y93000D02*
D03*
X152777Y53000D02*
D03*
X162777D02*
D03*
X92777Y13000D02*
D03*
X102777D02*
D03*
X82776D02*
D03*
X72777D02*
D03*
X62776D02*
D03*
X52776D02*
D03*
X42777D02*
D03*
X92777Y23000D02*
D03*
X82776D02*
D03*
X72777D02*
D03*
X62776D02*
D03*
X52776D02*
D03*
X42777D02*
D03*
X12776Y33000D02*
D03*
Y43000D02*
D03*
Y53000D02*
D03*
X22776Y33000D02*
D03*
Y43000D02*
D03*
Y53000D02*
D03*
Y63000D02*
D03*
X12776Y123000D02*
D03*
X22776Y143000D02*
D03*
Y133000D02*
D03*
X12776D02*
D03*
D28*
X16276Y83000D02*
D03*
X48777Y133000D02*
D03*
X134276Y123000D02*
D03*
X38276Y93000D02*
D03*
X61777Y115500D02*
D03*
X64276Y71000D02*
D03*
X69276Y64500D02*
D03*
X64276Y91000D02*
D03*
X111276Y107000D02*
D03*
X109276Y64500D02*
D03*
X64276Y77000D02*
D03*
X115777Y60000D02*
D03*
X87776Y88000D02*
D03*
X93777Y94000D02*
D03*
X99777Y100000D02*
D03*
X105777Y106000D02*
D03*
X81776Y94000D02*
D03*
X69776Y106000D02*
D03*
X75776Y100000D02*
D03*
X105777Y70000D02*
D03*
X99777Y76000D02*
D03*
X93777Y82000D02*
D03*
X81776D02*
D03*
X75776Y76000D02*
D03*
X69776Y70000D02*
D03*
X46277Y38000D02*
D03*
X125277Y43000D02*
D03*
X51026Y53750D02*
D03*
D29*
X162777Y163000D02*
D03*
X52776Y153000D02*
D03*
X42777D02*
D03*
Y163000D02*
D03*
X52776D02*
D03*
X62776D02*
D03*
Y153000D02*
D03*
X72777D02*
D03*
Y163000D02*
D03*
X82776Y153000D02*
D03*
Y163000D02*
D03*
X92777D02*
D03*
Y153000D02*
D03*
X102777D02*
D03*
Y163000D02*
D03*
X112777D02*
D03*
Y153000D02*
D03*
X122776D02*
D03*
Y163000D02*
D03*
X132776D02*
D03*
Y153000D02*
D03*
X142777D02*
D03*
Y163000D02*
D03*
X152777Y133000D02*
D03*
X162777D02*
D03*
Y123000D02*
D03*
X152777D02*
D03*
Y113000D02*
D03*
X162777D02*
D03*
X152777Y103000D02*
D03*
X162777D02*
D03*
Y93000D02*
D03*
X152777D02*
D03*
Y83000D02*
D03*
X162777D02*
D03*
X152777Y73000D02*
D03*
X162777D02*
D03*
Y63000D02*
D03*
X152777D02*
D03*
Y53000D02*
D03*
X162777D02*
D03*
Y43000D02*
D03*
X152777D02*
D03*
Y33000D02*
D03*
X162777D02*
D03*
X132776Y23000D02*
D03*
X122776D02*
D03*
X112777D02*
D03*
X142777D02*
D03*
X132776Y13000D02*
D03*
X122776D02*
D03*
X112777D02*
D03*
X102777D02*
D03*
Y23000D02*
D03*
X92777D02*
D03*
Y13000D02*
D03*
X82776D02*
D03*
Y23000D02*
D03*
X72777D02*
D03*
Y13000D02*
D03*
X62776D02*
D03*
Y23000D02*
D03*
X52776D02*
D03*
Y13000D02*
D03*
X42777D02*
D03*
Y23000D02*
D03*
X12776Y33000D02*
D03*
X22776D02*
D03*
X12776Y43000D02*
D03*
X22776D02*
D03*
Y53000D02*
D03*
X12776D02*
D03*
Y63000D02*
D03*
X22776D02*
D03*
Y103000D02*
D03*
X12776D02*
D03*
Y113000D02*
D03*
X22776D02*
D03*
Y123000D02*
D03*
X12776D02*
D03*
Y133000D02*
D03*
X22776D02*
D03*
Y143000D02*
D03*
X32776Y153000D02*
D03*
X22776D02*
D03*
X12776Y163000D02*
D03*
X152777Y153000D02*
D03*
Y23000D02*
D03*
X162777Y13000D02*
D03*
X22776Y23000D02*
D03*
X12776Y13000D02*
D03*
Y23000D02*
D03*
X22776Y13000D02*
D03*
X152777Y143000D02*
D03*
X162777D02*
D03*
Y153000D02*
D03*
X12776Y143000D02*
D03*
Y153000D02*
D03*
X22776Y163000D02*
D03*
X32776D02*
D03*
X152777D02*
D03*
X162777Y23000D02*
D03*
X152777Y13000D02*
D03*
X142777D02*
D03*
X32776D02*
D03*
Y23000D02*
D03*
M02*
