M48
;Layer_Color=9474304
;FILE_FORMAT=2:5
INCH,TZ
;TYPE=PLATED
T1F00S00C0.01200
T2F00S00C0.03543
T3F00S00C0.03937
%
T01
X46277Y38000
X51026Y53750
X69276Y64500
X69776Y70000
X64276Y71000
Y77000
X75776Y76000
X81776Y82000
X87776Y88000
X93777Y94000
X99777Y100000
X81776Y94000
X75776Y100000
X64276Y91000
X38276Y93000
X16276Y83000
X93777Y82000
X99777Y76000
X105777Y70000
X109276Y64500
X115777Y60000
X125277Y43000
X111276Y107000
X105777Y106000
X69776
X61777Y115500
X48777Y133000
X134276Y123000
T02
X152777Y13000
Y23000
Y33000
Y43000
Y53000
Y63000
Y73000
Y83000
Y93000
X162777
Y83000
Y73000
Y63000
Y53000
Y43000
Y33000
Y23000
Y13000
X142777
Y23000
X132776
Y13000
X122776
Y23000
X112777
Y13000
X102777
Y23000
X92777
Y13000
X82776
X72777
X62776
X52776
X42777
Y23000
X52776
X62776
X72777
X82776
X32776
X22776
Y13000
X32776
X12776
Y23000
Y33000
Y43000
Y53000
X22776
Y43000
Y33000
Y63000
X12776
Y103000
X22776
Y113000
Y123000
X12776
Y113000
Y133000
X22776
Y143000
Y153000
X32776
X42777
X52776
X62776
X72777
X82776
X92777
X102777
X112777
X122776
X132776
X142777
Y163000
X132776
X122776
X112777
X102777
X92777
X82776
X72777
X62776
X52776
X42777
X32776
X22776
X12776
Y153000
Y143000
X152777
Y133000
Y123000
X162777
Y133000
Y143000
Y153000
Y163000
X152777
Y153000
Y113000
Y103000
X162777
Y113000
T03
X152777Y13000
Y23000
Y33000
Y43000
Y53000
Y63000
Y73000
Y83000
Y93000
X162777
Y83000
Y73000
Y63000
Y53000
Y43000
Y33000
Y23000
Y13000
X142777
Y23000
X132776
X122776
X112777
Y13000
X122776
X132776
X102777
Y23000
X92777
Y13000
X82776
Y23000
X72777
Y13000
X62776
Y23000
X52776
Y13000
X42777
Y23000
X32776
X22776
Y33000
X12776
Y43000
X22776
Y53000
X12776
Y63000
X22776
X12776Y23000
Y13000
X22776
X32776
X22776Y103000
X12776
Y113000
X22776
Y123000
X12776
Y133000
X22776
Y143000
Y153000
X32776
X42777
X52776
Y163000
X42777
X32776
X22776
X12776
Y153000
Y143000
X62776Y153000
Y163000
X72777
Y153000
X82776
Y163000
X92777
Y153000
X102777
Y163000
X112777
Y153000
X122776
Y163000
X132776
Y153000
X142777
Y163000
X152777
X162777
Y153000
X152777
Y143000
Y133000
X162777
Y123000
X152777
Y113000
X162777
Y103000
X152777
X162777Y143000
M30
