%FSLAX25Y25*%
%MOIN*%
G70*
G01*
G75*
G04 Layer_Color=16711935*
%ADD10C,0.01000*%
%ADD11C,0.01200*%
%ADD12O,0.01181X0.06890*%
%ADD13O,0.06890X0.01181*%
%ADD14R,0.09449X0.07874*%
%ADD15R,0.03543X0.03740*%
%ADD16R,0.06000X0.18000*%
%ADD17R,0.18000X0.04000*%
%ADD18R,0.10000X0.08248*%
%ADD19R,0.06000X0.08000*%
%ADD20R,0.08000X0.06000*%
%ADD21R,0.06000X0.08500*%
%ADD22R,0.08500X0.06000*%
%ADD23R,0.18000X0.06000*%
%ADD24R,0.10000X0.08500*%
%ADD25R,0.07500X0.12000*%
%ADD26R,0.05906X0.05906*%
%ADD27R,0.05906X0.05906*%
%ADD28C,0.02400*%
%ADD29C,0.04500*%
%ADD30C,0.02000*%
%ADD31R,0.03740X0.03543*%
%ADD32R,0.05118X0.03543*%
%ADD33R,0.03543X0.05118*%
%ADD34R,0.04654X0.02962*%
%ADD35R,0.04962X0.04654*%
%ADD36R,0.18724X0.06000*%
%ADD37R,0.06000X0.18500*%
%ADD38C,0.02362*%
%ADD39C,0.00787*%
%ADD40O,0.01781X0.07490*%
%ADD41O,0.07490X0.01781*%
%ADD42R,0.10049X0.08474*%
%ADD43R,0.04143X0.04340*%
%ADD44R,0.06506X0.06506*%
%ADD45R,0.06506X0.06506*%
%ADD46C,0.03000*%
%ADD47C,0.05100*%
%ADD48R,0.04340X0.04143*%
%ADD49R,0.05718X0.04143*%
%ADD50R,0.04143X0.05718*%
D43*
X69276Y54949D02*
D03*
Y61051D02*
D03*
X115777Y50449D02*
D03*
Y56551D02*
D03*
X115277Y123551D02*
D03*
Y117449D02*
D03*
D44*
X142777Y153000D02*
D03*
X132776D02*
D03*
X142777Y163000D02*
D03*
X132776D02*
D03*
X122776D02*
D03*
X52776D02*
D03*
X32776D02*
D03*
X22776Y113000D02*
D03*
Y103000D02*
D03*
X152777Y163000D02*
D03*
X162777D02*
D03*
X152777Y123000D02*
D03*
Y133000D02*
D03*
Y143000D02*
D03*
Y153000D02*
D03*
X162777D02*
D03*
Y143000D02*
D03*
Y133000D02*
D03*
Y123000D02*
D03*
X152777Y83000D02*
D03*
X162777D02*
D03*
X152777Y73000D02*
D03*
Y63000D02*
D03*
X162777Y73000D02*
D03*
Y63000D02*
D03*
X152777Y33000D02*
D03*
Y23000D02*
D03*
Y43000D02*
D03*
X162777D02*
D03*
Y33000D02*
D03*
Y23000D02*
D03*
Y13000D02*
D03*
X152777D02*
D03*
X142777Y23000D02*
D03*
Y13000D02*
D03*
X132776Y23000D02*
D03*
Y13000D02*
D03*
X122776Y23000D02*
D03*
Y13000D02*
D03*
X112777Y23000D02*
D03*
Y13000D02*
D03*
X102777Y23000D02*
D03*
X22776D02*
D03*
X32776D02*
D03*
X22776Y13000D02*
D03*
X32776D02*
D03*
X12776D02*
D03*
Y23000D02*
D03*
Y63000D02*
D03*
Y103000D02*
D03*
Y113000D02*
D03*
X22776Y153000D02*
D03*
Y163000D02*
D03*
X12776Y143000D02*
D03*
Y153000D02*
D03*
Y163000D02*
D03*
D45*
X122776Y153000D02*
D03*
X112777D02*
D03*
X102777D02*
D03*
X92777D02*
D03*
X112777Y163000D02*
D03*
X102777D02*
D03*
X92777D02*
D03*
X82776D02*
D03*
X72777Y153000D02*
D03*
X82776D02*
D03*
X62776D02*
D03*
X52776D02*
D03*
X42777D02*
D03*
X32776D02*
D03*
X72777Y163000D02*
D03*
X62776D02*
D03*
X42777D02*
D03*
X22776Y123000D02*
D03*
X152777Y103000D02*
D03*
Y93000D02*
D03*
Y113000D02*
D03*
X162777D02*
D03*
Y103000D02*
D03*
Y93000D02*
D03*
X152777Y53000D02*
D03*
X162777D02*
D03*
X92777Y13000D02*
D03*
X102777D02*
D03*
X82776D02*
D03*
X72777D02*
D03*
X62776D02*
D03*
X52776D02*
D03*
X42777D02*
D03*
X92777Y23000D02*
D03*
X82776D02*
D03*
X72777D02*
D03*
X62776D02*
D03*
X52776D02*
D03*
X42777D02*
D03*
X12776Y33000D02*
D03*
Y43000D02*
D03*
Y53000D02*
D03*
X22776Y33000D02*
D03*
Y43000D02*
D03*
Y53000D02*
D03*
Y63000D02*
D03*
X12776Y123000D02*
D03*
X22776Y143000D02*
D03*
Y133000D02*
D03*
X12776D02*
D03*
D46*
X16276Y83000D02*
D03*
X48777Y133000D02*
D03*
X134276Y123000D02*
D03*
X38276Y93000D02*
D03*
X61777Y115500D02*
D03*
X64276Y71000D02*
D03*
X69276Y64500D02*
D03*
X64276Y91000D02*
D03*
X111276Y107000D02*
D03*
X109276Y64500D02*
D03*
X64276Y77000D02*
D03*
X115777Y60000D02*
D03*
X87776Y88000D02*
D03*
X93777Y94000D02*
D03*
X99777Y100000D02*
D03*
X105777Y106000D02*
D03*
X81776Y94000D02*
D03*
X69776Y106000D02*
D03*
X75776Y100000D02*
D03*
X105777Y70000D02*
D03*
X99777Y76000D02*
D03*
X93777Y82000D02*
D03*
X81776D02*
D03*
X75776Y76000D02*
D03*
X69776Y70000D02*
D03*
X46277Y38000D02*
D03*
X125277Y43000D02*
D03*
X51026Y53750D02*
D03*
D47*
X162777Y163000D02*
D03*
X52776Y153000D02*
D03*
X42777D02*
D03*
Y163000D02*
D03*
X52776D02*
D03*
X62776D02*
D03*
Y153000D02*
D03*
X72777D02*
D03*
Y163000D02*
D03*
X82776Y153000D02*
D03*
Y163000D02*
D03*
X92777D02*
D03*
Y153000D02*
D03*
X102777D02*
D03*
Y163000D02*
D03*
X112777D02*
D03*
Y153000D02*
D03*
X122776D02*
D03*
Y163000D02*
D03*
X132776D02*
D03*
Y153000D02*
D03*
X142777D02*
D03*
Y163000D02*
D03*
X152777Y133000D02*
D03*
X162777D02*
D03*
Y123000D02*
D03*
X152777D02*
D03*
Y113000D02*
D03*
X162777D02*
D03*
X152777Y103000D02*
D03*
X162777D02*
D03*
Y93000D02*
D03*
X152777D02*
D03*
Y83000D02*
D03*
X162777D02*
D03*
X152777Y73000D02*
D03*
X162777D02*
D03*
Y63000D02*
D03*
X152777D02*
D03*
Y53000D02*
D03*
X162777D02*
D03*
Y43000D02*
D03*
X152777D02*
D03*
Y33000D02*
D03*
X162777D02*
D03*
X132776Y23000D02*
D03*
X122776D02*
D03*
X112777D02*
D03*
X142777D02*
D03*
X132776Y13000D02*
D03*
X122776D02*
D03*
X112777D02*
D03*
X102777D02*
D03*
Y23000D02*
D03*
X92777D02*
D03*
Y13000D02*
D03*
X82776D02*
D03*
Y23000D02*
D03*
X72777D02*
D03*
Y13000D02*
D03*
X62776D02*
D03*
Y23000D02*
D03*
X52776D02*
D03*
Y13000D02*
D03*
X42777D02*
D03*
Y23000D02*
D03*
X12776Y33000D02*
D03*
X22776D02*
D03*
X12776Y43000D02*
D03*
X22776D02*
D03*
Y53000D02*
D03*
X12776D02*
D03*
Y63000D02*
D03*
X22776D02*
D03*
Y103000D02*
D03*
X12776D02*
D03*
Y113000D02*
D03*
X22776D02*
D03*
Y123000D02*
D03*
X12776D02*
D03*
Y133000D02*
D03*
X22776D02*
D03*
Y143000D02*
D03*
X32776Y153000D02*
D03*
X22776D02*
D03*
X12776Y163000D02*
D03*
X152777Y153000D02*
D03*
Y23000D02*
D03*
X162777Y13000D02*
D03*
X22776Y23000D02*
D03*
X12776Y13000D02*
D03*
Y23000D02*
D03*
X22776Y13000D02*
D03*
X152777Y143000D02*
D03*
X162777D02*
D03*
Y153000D02*
D03*
X12776Y143000D02*
D03*
Y153000D02*
D03*
X22776Y163000D02*
D03*
X32776D02*
D03*
X152777D02*
D03*
X162777Y23000D02*
D03*
X152777Y13000D02*
D03*
X142777D02*
D03*
X32776D02*
D03*
Y23000D02*
D03*
D48*
X52225Y115500D02*
D03*
X58328D02*
D03*
X54725Y91000D02*
D03*
X60828D02*
D03*
X54725Y77000D02*
D03*
X60828D02*
D03*
Y71500D02*
D03*
X54725D02*
D03*
X60828Y66000D02*
D03*
X54725D02*
D03*
X60828Y60500D02*
D03*
X54725D02*
D03*
D49*
X109276Y52866D02*
D03*
Y61134D02*
D03*
D50*
X122910Y106500D02*
D03*
X114643D02*
D03*
M02*
