%FSLAX25Y25*%
%MOIN*%
G70*
G01*
G75*
G04 Layer_Color=16711935*
%ADD10C,0.01000*%
%ADD11C,0.01200*%
%ADD12O,0.01181X0.06890*%
%ADD13O,0.06890X0.01181*%
%ADD14R,0.09449X0.07874*%
%ADD15R,0.03543X0.03740*%
%ADD16R,0.06000X0.18000*%
%ADD17R,0.18000X0.04000*%
%ADD18R,0.10000X0.08248*%
%ADD19R,0.06000X0.08000*%
%ADD20R,0.08000X0.06000*%
%ADD21R,0.06000X0.08500*%
%ADD22R,0.08500X0.06000*%
%ADD23R,0.18000X0.06000*%
%ADD24R,0.10000X0.08500*%
%ADD25R,0.07500X0.12000*%
%ADD26R,0.05906X0.05906*%
%ADD27R,0.05906X0.05906*%
%ADD28C,0.02400*%
%ADD29C,0.04500*%
%ADD30C,0.02000*%
%ADD31R,0.03740X0.03543*%
%ADD32R,0.05118X0.03543*%
%ADD33R,0.03543X0.05118*%
%ADD34R,0.04654X0.02962*%
%ADD35R,0.04962X0.04654*%
%ADD36R,0.18724X0.06000*%
%ADD37R,0.06000X0.18500*%
%ADD38C,0.02362*%
%ADD39C,0.00787*%
%ADD40O,0.01781X0.07490*%
%ADD41O,0.07490X0.01781*%
%ADD42R,0.10049X0.08474*%
%ADD43R,0.04143X0.04340*%
%ADD44R,0.06506X0.06506*%
%ADD45R,0.06506X0.06506*%
%ADD46C,0.03000*%
%ADD47C,0.05100*%
%ADD48R,0.04340X0.04143*%
%ADD49R,0.05718X0.04143*%
%ADD50R,0.04143X0.05718*%
%ADD51C,0.00394*%
D51*
X65926Y111819D02*
G03*
X65926Y111819I-1969J0D01*
G01*
X51930Y113728D02*
X58623D01*
X51930Y117272D02*
X58623D01*
X51930Y113728D02*
Y117272D01*
X58623Y113728D02*
Y117272D01*
X54430Y89228D02*
X61123D01*
X54430Y92772D02*
X61123D01*
X54430Y89228D02*
Y92772D01*
X61123Y89228D02*
Y92772D01*
X54430Y75228D02*
X61123D01*
X54430Y78772D02*
X61123D01*
X54430Y75228D02*
Y78772D01*
X61123Y75228D02*
Y78772D01*
X54430Y73272D02*
X61123D01*
X54430Y69728D02*
X61123D01*
Y73272D01*
X54430Y69728D02*
Y73272D01*
Y67772D02*
X61123D01*
X54430Y64228D02*
X61123D01*
Y67772D01*
X54430Y64228D02*
Y67772D01*
Y62272D02*
X61123D01*
X54430Y58728D02*
X61123D01*
Y62272D01*
X54430Y58728D02*
Y62272D01*
X71048Y54654D02*
Y61347D01*
X67505Y54654D02*
Y61347D01*
Y54654D02*
X71048D01*
X67505Y61347D02*
X71048D01*
X111639Y53063D02*
Y60937D01*
X106914Y53063D02*
Y60937D01*
Y53063D02*
X111639D01*
X106914Y60937D02*
X111639D01*
X117548Y50153D02*
Y56846D01*
X114005Y50153D02*
Y56846D01*
Y50153D02*
X117548D01*
X114005Y56846D02*
X117548D01*
X114839Y108862D02*
X122713D01*
X114839Y104138D02*
X122713D01*
Y108862D01*
X114839Y104138D02*
Y108862D01*
X113505Y117154D02*
Y123846D01*
X117048Y117154D02*
Y123846D01*
X113505D02*
X117048D01*
X113505Y117154D02*
X117048D01*
X60217Y60441D02*
X115336D01*
X60217Y115559D02*
X115336D01*
Y60441D02*
Y115559D01*
X60217Y60441D02*
Y115559D01*
X15084Y72764D02*
Y93236D01*
X28469Y72764D02*
Y93236D01*
X15084Y72764D02*
X28469D01*
X15084Y93236D02*
X28469D01*
X12548Y72654D02*
Y79347D01*
X9005Y72654D02*
Y79347D01*
X12548D01*
X9005Y72654D02*
X12548D01*
Y86654D02*
Y93347D01*
X9005Y86654D02*
Y93347D01*
X12548D01*
X9005Y86654D02*
X12548D01*
M02*
